<?xml version="1.0" encoding="UTF-8" standalone="no"?>
<!DOCTYPE svg PUBLIC "-//W3C//DTD SVG 1.1//EN" "http://www.w3.org/Graphics/SVG/1.1/DTD/svg11.dtd">
<svg width="100%" height="100%" viewBox="0 0 987 655" version="1.1" xmlns="http://www.w3.org/2000/svg" xmlns:xlink="http://www.w3.org/1999/xlink" xml:space="preserve" xmlns:serif="http://www.serif.com/" style="fill-rule:evenodd;clip-rule:evenodd;stroke-linejoin:round;stroke-miterlimit:2;">
    <g transform="matrix(1,0,0,1,-822.525,-1163)">
        <g transform="matrix(4.16667,0,0,4.16667,0,0)">
            <g>
                <path d="M424.152,320.996C424.152,317.867 423.664,315.293 422.695,313.277C422.695,312.141 423.594,309.441 425.41,305.176C425.645,304.652 425.844,304.402 426.008,304.402C426.203,304.402 426.422,304.672 426.691,305.23C427.211,306.328 428.418,309.387 430.289,314.41C432.289,319.613 433.441,322.816 433.766,324.023C434.016,324.941 434.16,325.625 434.16,326.074C434.16,327.512 432.773,326.648 430.004,323.48C429.68,323.031 429.516,323.23 429.516,324.074C429.516,324.363 430.219,334.371 431.656,354.102C433.098,373.828 433.816,384.934 433.816,387.398C433.816,394.996 432.648,401.672 430.344,407.434C429.859,408.605 429.461,409.449 429.176,409.973C428.723,410.746 428.453,410.855 428.348,410.312C428.219,409.719 428.273,408.477 428.488,406.586C428.777,403.996 428.941,400.973 428.941,397.516C428.941,394.383 428.129,381.531 426.547,358.941C424.945,336.352 424.152,323.699 424.152,320.996Z" style="fill:rgb(0,162,181);fill-rule:nonzero;"/>
                <path d="M411.211,380.434C409.555,375.41 408.438,370.73 407.844,366.359C407.629,364.664 407.465,363.641 407.359,363.242C407.125,362.324 406.691,361.426 406.043,360.562C406.492,359.051 407.215,356.961 408.188,354.262C408.512,353.469 408.816,353.09 409.066,353.09C409.301,353.09 409.699,353.469 410.293,354.262C412.867,357.844 415.027,361.047 416.773,363.875C417.492,365.043 417.852,365.871 417.852,366.359C417.852,366.719 417.691,366.898 417.367,366.898C416.719,366.898 415.547,366.359 413.855,365.297C413.695,365.297 413.566,365.402 413.461,365.637C414.055,367.742 414.988,370.66 416.285,374.367C419.219,382.703 420.695,388.77 420.695,392.582C420.695,396.383 420.121,399.711 418.984,402.539C417.098,407.363 413.82,409.773 409.176,409.773C404.227,409.773 400.32,407.613 397.457,403.328C395.73,400.754 394.199,396.902 392.867,391.754C392.293,396.941 390.637,401.387 387.938,405.129C384.625,409.664 380.375,411.934 375.211,411.934C369.504,411.934 365.527,409.215 363.238,403.762C361.98,400.703 361.352,397.121 361.352,392.98C361.352,387.508 361.996,382.414 363.293,377.699C363.637,376.418 363.816,375.574 363.816,375.16C363.816,374.926 363.762,374.816 363.637,374.816C363.402,374.816 362.879,375.449 362.07,376.707C360.793,378.707 359.461,382.738 358.055,388.82C356.238,396.668 355.051,401.402 354.492,403.023C353.754,405.273 352.691,407.09 351.324,408.461C350.227,409.594 349.254,410.168 348.445,410.168C344.809,410.168 341.98,407.848 340.004,403.223C338.383,399.387 337.57,394.742 337.57,389.309C337.57,385.508 338.148,381.371 339.316,376.906C339.59,375.898 339.84,375.16 340.109,374.656C340.453,374.043 340.703,373.973 340.828,374.422C340.957,374.945 340.902,375.863 340.633,377.195C339.984,380.594 339.66,383.691 339.66,386.535C339.66,397.535 341.965,403.043 346.59,403.043C348.57,403.043 350.227,401.547 351.523,398.594C352.332,396.742 353.32,393.195 354.492,387.992C355.844,382.234 356.977,378.023 357.91,375.34C358.992,372.281 360.324,369.562 361.926,367.187C363.637,364.523 365.148,363.191 366.406,363.191C367.453,363.191 367.973,364.289 367.973,366.5C367.973,368.336 367.453,372.027 366.406,377.609C365.363,383.207 364.859,386.949 364.859,388.875C364.859,393.035 365.723,396.293 367.469,398.633C369.199,400.988 371.629,402.16 374.707,402.16C380.305,402.16 384.516,400.395 387.305,396.887C389.52,394.113 390.637,390.695 390.637,386.625C390.637,382.719 390.293,378.941 389.645,375.305C389.195,372.73 388.566,370.281 387.793,367.977C387.145,365.961 386.82,365.008 386.82,365.133C386.82,362.902 387.539,359.84 389.016,355.953C389.34,355.109 389.594,354.695 389.789,354.695C390.023,354.695 390.383,355.25 390.906,356.352C392.992,360.687 394.633,367.328 395.84,376.277C396.973,384.645 398.609,390.621 400.754,394.223C402.875,397.82 406.117,399.621 410.488,399.621C414.125,399.621 416.52,398.289 417.652,395.66C417.652,394.742 416.898,392.801 415.367,389.793C413.406,385.996 412.039,382.863 411.211,380.434Z" style="fill:rgb(0,162,181);fill-rule:nonzero;"/>
                <path d="M320.578,333.598C320.578,330.465 320.094,327.891 319.121,325.875C319.121,324.742 320.023,322.043 321.84,317.777C322.074,317.254 322.289,317 322.488,317C322.648,317 322.848,317.273 323.117,317.828C323.641,318.965 324.848,322.023 326.719,327.008C328.715,332.211 329.867,335.414 330.191,336.621C330.445,337.539 330.59,338.223 330.59,338.672C330.59,340.133 329.203,339.27 326.43,336.027C326.105,335.648 325.945,335.867 325.945,336.676C325.945,336.965 326.52,344.883 327.652,360.398C328.789,375.934 329.363,384.934 329.363,387.398C329.363,394.996 328.195,401.672 325.891,407.434C325.402,408.605 325.027,409.469 324.719,410.027C324.27,410.762 324,410.855 323.891,410.312C323.766,409.754 323.82,408.531 324.035,406.641C324.324,404.031 324.484,400.988 324.484,397.516C324.484,394.383 323.82,383.637 322.523,365.242C321.227,346.844 320.578,336.297 320.578,333.598Z" style="fill:rgb(0,162,181);fill-rule:nonzero;"/>
                <g transform="matrix(0.24,0,0,0.24,0,0)">
                    <path d="M1181.37,1666.25L1181.4,1666.21C1235.92,1666.21 1279.8,1647.09 1313.02,1608.84C1314.89,1606.51 1315.87,1604.64 1315.87,1603.14C1315.87,1601.12 1313.62,1598.05 1309.13,1594C1296.08,1582.44 1276.95,1568.78 1251.6,1552.9C1220.62,1533.46 1200.38,1520.18 1190.77,1512.99C1168.95,1496.86 1151.63,1479.92 1138.87,1462.14C1138.49,1461.62 1136.48,1460.56 1132.8,1458.92C1129.12,1457.26 1127.33,1455.76 1127.33,1454.41C1127.33,1417.97 1131.82,1395.62 1140.9,1387.52C1164,1366.75 1213.43,1339.37 1289.4,1305.32C1365.98,1270.82 1416.6,1253.65 1441.28,1253.65C1448.63,1253.65 1453.65,1255.06 1456.35,1257.99C1459.05,1260.92 1460.4,1265.87 1460.4,1272.92C1460.4,1289.05 1450.8,1309.15 1431.53,1333.14C1424.33,1341.31 1417.12,1349.5 1409.78,1357.75C1398.23,1371.16 1390.43,1382.11 1386.38,1390.51C1383.67,1396.21 1381.95,1399.07 1381.28,1399.07C1380.6,1399.07 1381.05,1395.25 1382.55,1387.66C1383.3,1383.46 1386.53,1376.19 1392.08,1365.92C1397.1,1356.4 1400.93,1350.25 1403.48,1347.4C1425.15,1322.72 1438.2,1306.51 1442.48,1298.71C1442.92,1297.97 1443.15,1297.13 1443.15,1296.32C1443.15,1291.67 1437,1289.42 1424.85,1289.42C1405.28,1289.42 1359.46,1305.84 1287.37,1338.83C1214.55,1372.22 1164.89,1399.66 1138.49,1421.27C1136.7,1422.77 1137,1424.04 1139.26,1425.1L1177.88,1443.25C1186.35,1447.14 1190.54,1450.44 1190.54,1453.22C1190.54,1455.62 1187.09,1456.82 1180.35,1456.82C1176.83,1456.82 1172.62,1456.51 1167.76,1455.84C1176.15,1466.8 1194.97,1480.89 1224.07,1497.92C1259.78,1519 1282.73,1533.61 1293,1541.86C1315.58,1560.09 1326.83,1578.32 1326.83,1596.61C1326.83,1613.35 1323.6,1627.21 1317.22,1638.31C1310.63,1649.87 1298.55,1661.87 1281,1674.32C1263.15,1687.23 1246.12,1696.06 1230,1700.8C1216.57,1704.83 1200.38,1706.93 1181.4,1706.93L1181.37,1706.9L1181.33,1706.93C1161.83,1706.93 1147.95,1700.42 1139.85,1687.37C1134.29,1678.14 1130.26,1662.24 1127.85,1639.75C1124.62,1610.04 1121.78,1590.61 1119.3,1581.4C1116.98,1572.54 1114.73,1568.12 1112.4,1568.12C1110.37,1568.12 1108.87,1570.96 1107.9,1576.66C1101.67,1611.91 1090.12,1629.62 1073.17,1629.62L1073.11,1629.53L1073.1,1629.54C1068.6,1629.54 1065.15,1629.08 1062.68,1628.11C1062.68,1677.39 1055.47,1710.55 1040.92,1727.64C1025.99,1745.26 1004.62,1763.18 976.646,1781.35C941.242,1804.3 910.871,1815.77 885.529,1815.77C862.208,1815.77 845.1,1805.42 834.083,1784.8C826.35,1770.54 822.525,1754.26 822.525,1735.97C822.525,1707.47 828.45,1678.52 840.379,1649.12C843,1642.74 844.875,1639.52 846.079,1639.52C846.6,1639.67 846.908,1640.35 846.908,1641.54C846.908,1643.57 846.304,1646.71 845.1,1650.91C836.85,1680.1 832.729,1702.3 832.729,1717.45C832.729,1730.65 836.929,1743.16 845.475,1755.1C855.517,1769.19 868.504,1776.32 884.325,1776.32C902.767,1776.32 925.65,1768.9 953.092,1754.12C974.917,1742.27 996.6,1727.57 1018.13,1709.95C1037.09,1694.34 1047.98,1683.61 1050.67,1677.77C1050.67,1654.96 1044.22,1630.81 1031.33,1605.32C1028.92,1600.44 1027.72,1596.7 1027.72,1593.91C1027.72,1591.9 1030.35,1582.38 1035.6,1565.27C1036.57,1561.96 1037.63,1560.38 1038.9,1560.38C1040.25,1560.38 1041.9,1562.57 1044,1567.06C1047.61,1575.1 1050.38,1579.96 1052.1,1581.69C1056.61,1586.49 1063.58,1588.88 1073.1,1588.82L1073.16,1588.9L1073.17,1588.88C1092.53,1588.88 1102.95,1572.77 1104.44,1540.45C1104.98,1528.14 1107.9,1521.99 1113.23,1521.99C1118.62,1521.99 1123.13,1526.79 1126.65,1536.39C1132.42,1552.13 1137,1573.21 1140.22,1599.69C1143.38,1624.22 1146.52,1640.12 1149.82,1647.31C1155.52,1659.91 1166.03,1666.21 1181.33,1666.21L1181.37,1666.25Z" style="fill:rgb(0,162,181);fill-rule:nonzero;"/>
                </g>
                <path d="M327.059,296.031C326.734,297.398 326.34,298.301 325.891,298.715C324.09,299.828 320.184,302.422 314.172,306.527C313.922,306.687 313.598,306.902 313.254,307.172C313.184,307.137 313.129,307.012 313.094,306.832L313.434,304.727C313.543,304.203 314.531,303.215 316.422,301.738C314.082,300.891 312.91,299.848 312.91,298.57C312.91,297.148 313.523,295.672 314.766,294.176C317.16,291.281 319.176,289.84 320.762,289.84C322.199,289.84 322.902,290.648 322.902,292.27C322.902,293.187 322.523,294.285 321.73,295.547C321.57,295.832 321.391,295.797 321.191,295.402C320.742,294.465 320.164,293.996 319.445,293.996C318.852,293.996 318.168,294.27 317.375,294.824C316.566,295.367 316.172,295.852 316.172,296.285C316.172,296.77 316.656,297.273 317.645,297.797C318.617,298.316 319.391,298.57 319.984,298.57C320.527,298.57 321.48,298.172 322.813,297.344C323.746,296.734 324.703,296.141 325.637,295.547C326.43,295.133 326.898,294.953 327.059,295.004C327.188,295.078 327.188,295.418 327.059,296.031Z" style="fill:rgb(255,97,5);fill-rule:nonzero;"/>
                <path d="M257.578,411.609C257.437,411.52 257.437,411.32 257.578,411.035L260.695,404.625C260.89,404.23 261.109,404.051 261.324,404.051C261.648,404.051 263.051,404.895 265.535,406.586C268.004,408.281 269.242,409.27 269.242,409.559C269.242,410.672 268.145,412.977 265.969,416.504C265.699,416.957 265.43,417.062 265.141,416.848C262.691,414.977 260.172,413.246 257.578,411.609Z" style="fill:rgb(255,97,5);fill-rule:nonzero;"/>
                <path d="M394.578,337.648C394.578,338.926 394.289,340.238 393.73,341.609C392.992,343.371 392.039,344.254 390.852,344.254C388.996,344.254 387.684,342.977 386.91,340.437C386.027,343.695 384.426,345.332 382.066,345.332C381.203,345.332 380.43,344.883 379.781,344C379.027,342.957 378.664,341.59 378.664,339.898L378.664,335.902C378.664,335.578 378.434,335.344 378,335.219C377.551,335.09 377.336,334.75 377.336,334.191C377.336,333.309 377.695,332.445 378.449,331.602C379.133,330.863 379.656,330.484 380.016,330.484C380.484,330.484 380.719,331.367 380.719,333.113C380.719,334.031 380.629,334.785 380.484,335.414C380.34,336.027 380.27,336.566 380.27,337.02C380.27,337.973 380.449,338.891 380.844,339.754C381.313,340.781 381.871,341.285 382.555,341.285C383.438,341.285 384.266,340.871 385.039,340.078C385.793,339.285 386.191,338.352 386.191,337.27C386.191,336.656 386.012,335.594 385.648,334.102C385.289,332.59 385.109,331.672 385.109,331.312C385.109,330.988 385.273,330.465 385.598,329.762C385.922,329.078 386.152,328.719 386.316,328.719C386.621,328.719 387,329.711 387.469,331.707C387.938,333.687 388.188,335.145 388.188,336.102C388.188,338.836 389.23,340.203 391.355,340.203C392.258,340.203 392.832,339.734 393.066,338.836C391.23,335.633 390.328,333.203 390.328,331.508C390.328,330.52 390.563,329.656 391.051,328.918C391.391,328.395 391.609,328.109 391.734,328.09C391.879,328.09 391.969,328.414 392.039,329.062C392.129,329.98 392.273,330.719 392.473,331.312C392.508,331.367 392.941,332.5 393.785,334.676C394.309,335.973 394.578,336.965 394.578,337.648Z" style="fill:rgb(255,97,5);fill-rule:nonzero;"/>
                <path d="M301.844,289.84C310.879,286.547 320.488,283.055 330.641,279.328C331.145,279.148 331.469,279.074 331.559,279.148C331.688,279.238 331.668,279.508 331.469,279.977C330.875,281.398 330.406,282.262 330.047,282.566C321.516,285.629 311.563,289.516 300.188,294.25C300.527,292.898 301.086,291.441 301.844,289.84Z" style="fill:rgb(255,97,5);fill-rule:nonzero;"/>
                <path d="M352.926,332.57C369.055,326.543 385.758,320.332 403.004,313.906C403.523,313.727 403.828,313.652 403.922,313.727C404.063,313.816 404.027,314.086 403.828,314.555C403.234,315.977 402.77,316.84 402.406,317.129C402.211,317.324 394.199,320.387 378.344,326.309C362.18,332.336 353.141,335.902 351.27,337.02C351.594,335.668 352.133,334.191 352.926,332.57Z" style="fill:rgb(255,97,5);fill-rule:nonzero;"/>
                <path d="M377.227,315.309C376.867,316.082 376.578,316.57 376.344,316.73C376.145,316.895 376.039,316.785 376.004,316.426C376.004,316.066 376.094,315.578 376.273,314.969C376.453,314.336 376.688,313.203 376.973,311.547C377.371,305.68 374.797,300.332 369.27,295.473C368.945,295.187 368.891,294.824 369.125,294.395L370.586,291.82C370.711,291.586 370.926,291.586 371.215,291.82C376.324,295.617 378.883,300.836 378.883,307.445C378.883,310.34 378.324,312.969 377.227,315.309Z" style="fill:rgb(255,97,5);fill-rule:nonzero;"/>
                <path d="M358.957,347.836C359.242,346.883 359.316,345.945 359.152,344.992C358.957,343.949 358.488,343.426 357.73,343.426C357.371,343.426 356.887,343.605 356.273,343.949C355.66,344.289 355.34,344.613 355.34,344.937C355.34,345.695 356.543,346.648 358.957,347.836ZM357.102,352.031C354.078,350.465 352.566,348.824 352.566,347.098C352.566,345.008 353.52,343.102 355.445,341.375C357.355,339.664 358.957,339.016 360.215,339.484C361.297,339.863 361.836,341.031 361.836,342.941C361.836,344.668 361.477,346.613 360.758,348.754C362.285,349.637 363.258,350.391 363.637,351.004C363.637,351.813 362.953,353.199 361.586,355.145C361.207,354.531 360.27,353.793 358.813,352.91C357.121,355.25 354.977,357.375 352.367,359.301C349.398,361.48 346.699,363.137 344.215,364.234C343.691,364.504 340.828,365.582 335.629,367.508C334.816,367.797 334.277,367.961 334.008,367.961C333.883,367.961 333.828,367.922 333.828,367.852C333.828,367.652 334.277,367.277 335.18,366.684C339.031,364.395 342.883,362.109 346.754,359.789C351.379,356.996 354.816,354.406 357.102,352.031Z" style="fill:rgb(255,97,5);fill-rule:nonzero;"/>
                <path d="M413.875,330.176C413.875,331.832 413.191,333.723 411.82,335.848C410.418,338.062 408.617,339.953 406.402,341.52C405.523,342.129 405,342.453 404.84,342.453C404.801,342.453 404.801,342.437 404.801,342.398C404.801,342.273 405.16,341.789 405.918,340.977C409.555,337 411.391,334.355 411.391,333.004C411.391,331.742 410.797,331.113 409.625,331.113C408.977,331.113 408.383,331.293 407.863,331.652C407.484,331.906 407.23,332.051 407.141,332.086C407.07,332.012 406.996,331.977 406.891,331.941C406.926,331.816 406.996,331.473 407.09,330.914C407.684,328.18 409.031,326.812 411.191,326.812C412.973,326.812 413.875,327.926 413.875,330.176Z" style="fill:rgb(255,97,5);fill-rule:nonzero;"/>
                <path d="M213.895,370.93C230.023,364.898 246.727,358.691 263.969,352.262C264.492,352.082 264.797,352.012 264.887,352.082C265.031,352.172 264.996,352.445 264.797,352.91C264.203,354.332 263.734,355.199 263.375,355.484C263.18,355.684 255.168,358.742 239.309,364.664C223.145,370.695 214.109,374.258 212.238,375.375C212.563,374.027 213.102,372.551 213.895,370.93Z" style="fill:rgb(255,97,5);fill-rule:nonzero;"/>
                <path d="M288.883,299.234C288.883,301.055 288.254,302.801 287.012,304.457C285.68,306.254 284.129,307.156 282.328,307.156C280.477,307.156 279.559,306.254 279.559,304.457C279.559,303.16 280.277,301.27 281.754,298.77C283.211,296.285 284.473,295.043 285.496,295.043C286.414,295.043 287.207,295.437 287.875,296.23C288.539,297.023 288.883,298.031 288.883,299.234ZM287.281,301.289C287.281,299.594 286.109,298.75 283.805,298.75C283.48,298.75 282.926,299.273 282.168,300.332C281.395,301.395 281.016,302.133 281.016,302.566C281.27,303.141 282.133,303.449 283.609,303.449C286.055,303.449 287.281,302.727 287.281,301.289Z" style="fill:rgb(255,97,5);fill-rule:nonzero;"/>
                <path d="M227.375,307.75C227.664,306.797 227.734,305.859 227.574,304.906C227.375,303.863 226.906,303.34 226.152,303.34C225.793,303.34 225.305,303.52 224.695,303.863C224.082,304.203 223.758,304.527 223.758,304.852C223.758,305.609 224.965,306.562 227.375,307.75ZM225.523,311.945C222.496,310.379 220.984,308.738 220.984,307.012C220.984,304.922 221.941,303.016 223.867,301.289C225.773,299.578 227.375,298.93 228.637,299.398C229.715,299.777 230.258,300.945 230.258,302.855C230.258,304.582 229.895,306.527 229.176,308.668C230.707,309.551 231.68,310.305 232.055,310.918C232.055,311.727 231.371,313.113 230.004,315.059C229.625,314.445 228.691,313.707 227.23,312.824C225.539,315.164 223.398,317.289 220.789,319.215C217.816,321.395 215.117,323.051 212.633,324.148C212.113,324.418 209.25,325.496 204.047,327.422C203.238,327.711 202.699,327.875 202.43,327.875C202.301,327.875 202.246,327.836 202.246,327.766C202.246,327.566 202.699,327.191 203.598,326.594C207.449,324.309 211.301,322.023 215.172,319.703C219.797,316.91 223.234,314.32 225.523,311.945Z" style="fill:rgb(255,97,5);fill-rule:nonzero;"/>
                <path d="M311.184,333.902C311.977,334.355 312.371,334.875 312.371,335.488C312.371,335.902 312.176,336.297 311.797,336.695C310.68,337.793 309.996,338.277 309.707,338.152C309.742,337.754 309.367,337.145 308.594,336.281C308.07,335.973 306.648,335.883 304.324,336.027C301.859,336.172 299.879,336.531 298.352,337.109C297.848,337.305 297.613,337.523 297.594,337.773C297.613,338.223 298.422,338.906 300.043,339.844C301.301,340.562 302.902,341.285 304.867,341.984C306.828,342.687 308.035,343.172 308.465,343.426C310.914,344.828 312.031,346.449 311.832,348.27C311.723,349.383 311.023,350.48 309.707,351.598C308.555,352.586 307.746,353.039 307.313,352.93C300.258,351.238 295.309,349.563 292.465,347.906C290.09,346.523 288.898,344.559 288.898,342.004C288.898,341.535 288.953,341.086 289.063,340.672C289.746,341.949 291.367,343.316 293.902,344.793C294.984,345.422 297.719,346.504 302.129,348.016C306.02,349.383 308.449,350.176 309.383,350.391C309.707,349.094 308.484,347.621 305.695,345.98C303.75,345.297 301.105,344.184 297.719,342.633C295.543,341.355 294.445,340.223 294.445,339.23C294.445,338.422 295.184,337.559 296.641,336.605C300.133,334.371 303.77,333.254 307.566,333.254C309.188,333.254 310.391,333.473 311.184,333.902Z" style="fill:rgb(255,97,5);fill-rule:nonzero;"/>
                <path d="M343.566,343.391C343.566,344.793 342.973,346.395 341.82,348.195C340.633,350.086 339.086,351.687 337.211,353.02C336.457,353.543 336.023,353.812 335.879,353.812C335.844,353.812 335.844,353.793 335.844,353.758C335.844,353.648 336.148,353.254 336.781,352.551C339.895,349.187 341.441,346.937 341.441,345.785C341.441,344.723 340.938,344.184 339.949,344.184C339.391,344.184 338.887,344.324 338.453,344.633C338.113,344.848 337.914,344.973 337.824,344.992C337.77,344.937 337.699,344.902 337.625,344.867C337.645,344.758 337.699,344.469 337.789,344C338.293,341.68 339.445,340.527 341.281,340.527C342.793,340.527 343.566,341.48 343.566,343.391Z" style="fill:rgb(255,97,5);fill-rule:nonzero;"/>
                <path d="M217.855,389.289C219.563,389.289 221.293,390.945 223.02,394.258C224.586,397.301 225.664,400.684 226.297,404.426C226.352,404.789 226.387,404.984 226.387,405.059C226.457,405.148 226.492,405.148 226.531,405.059C226.566,404.984 226.656,404.789 226.781,404.426C227.23,401.207 228.113,396.957 229.41,391.664C230.652,388.715 232.004,387.238 233.461,387.238C234.215,387.238 234.953,387.742 235.711,388.75C236.359,389.633 236.684,390.332 236.684,390.891C236.684,391.324 236.574,391.863 236.34,392.547C236.051,393.465 235.711,393.914 235.313,393.914C235.152,393.914 234.793,393.574 234.254,392.871C233.695,392.168 233.117,391.828 232.543,391.828C231.336,391.828 229.969,396.039 228.438,404.465C227.953,407.145 227.41,409.035 226.816,410.133C226.402,410.891 226.043,411.27 225.758,411.27C225.484,411.27 225.359,410.926 225.359,410.242C225.359,409.125 224.656,406.48 223.273,402.32C221.832,398.02 220.879,395.879 220.391,395.879C220.031,395.879 219.797,395.984 219.707,396.219C219.602,396.437 219.313,396.562 218.824,396.562C218.27,396.562 217.547,396.148 216.648,395.336C215.746,394.527 215.316,393.863 215.316,393.375C215.316,393.16 215.676,392.422 216.434,391.16C217.188,389.902 217.656,389.289 217.855,389.289Z" style="fill:rgb(255,97,5);fill-rule:nonzero;"/>
                <path d="M398.43,298.516C398.43,300.172 397.746,302.062 396.379,304.187C394.973,306.398 393.176,308.289 390.961,309.855C390.078,310.469 389.555,310.793 389.395,310.793C389.359,310.793 389.359,310.773 389.359,310.738C389.359,310.613 389.719,310.125 390.473,309.316C394.109,305.336 395.945,302.691 395.945,301.34C395.945,300.082 395.352,299.453 394.184,299.453C393.535,299.453 392.941,299.633 392.418,299.992C392.039,300.242 391.789,300.387 391.699,300.422C391.625,300.352 391.555,300.316 391.445,300.281C391.48,300.152 391.555,299.812 391.645,299.254C392.238,296.52 393.59,295.148 395.746,295.148C397.531,295.148 398.43,296.266 398.43,298.516Z" style="fill:rgb(255,97,5);fill-rule:nonzero;"/>
                <path d="M358.902,319.559C359.82,319.559 360.664,319.16 361.492,318.371C362.43,317.469 362.898,316.336 362.898,314.969C362.898,313.457 362.051,312.719 360.359,312.719C359.621,312.719 358.973,312.934 358.414,313.402C358.414,312.52 359.027,311.152 360.27,309.297C361.367,307.57 362.484,306.203 363.582,305.195C363.852,304.887 363.926,304.637 363.836,304.402C363.762,304.203 363.582,304.203 363.293,304.367C361.855,305.23 360.324,306.887 358.703,309.297C356.852,311.996 355.934,314.32 355.934,316.281C355.934,318.461 356.922,319.559 358.902,319.559Z" style="fill:rgb(255,97,5);fill-rule:nonzero;"/>
                <path d="M207.648,387.129C207.793,386.805 207.918,386.609 208.063,386.52C208.152,386.426 208.223,386.445 208.262,386.59C208.313,386.715 208.313,386.949 208.262,387.273C207.953,389.867 207.199,392.187 206.047,394.238C204.875,396.293 203.617,397.316 202.246,397.316C200.754,397.355 199.621,396.578 198.828,394.977C198.055,393.395 197.73,391.25 197.82,388.57C197.945,385.238 199.223,380.363 201.637,373.937C203.742,368.285 205.559,364.27 207.109,361.91C207.793,360.867 208.242,360.309 208.477,360.273C208.512,360.453 208.313,361.066 207.863,362.109C204.445,369.723 202.23,375.879 201.238,380.559C200.824,382.434 200.629,384.125 200.629,385.637C200.629,387.723 201.008,389.289 201.781,390.352C202.375,391.215 202.984,391.574 203.617,391.434C204.949,391.16 206.281,389.723 207.648,387.129Z" style="fill:rgb(255,97,5);fill-rule:nonzero;"/>
                <path d="M206.027,332.156C208.441,332.156 210.852,334.48 213.266,339.125C215.461,343.355 216.988,348.086 217.855,353.324C217.945,353.828 217.98,354.137 217.98,354.227C218.07,354.352 218.141,354.352 218.195,354.227C218.23,354.137 218.359,353.828 218.539,353.324C219.168,348.824 220.391,342.867 222.227,335.488C223.957,331.348 225.848,329.277 227.898,329.277C228.941,329.277 229.984,329.98 231.031,331.383C231.949,332.625 232.398,333.617 232.398,334.391C232.398,334.984 232.234,335.758 231.93,336.73C231.516,338.008 231.031,338.637 230.488,338.637C230.258,338.637 229.754,338.152 228.977,337.16C228.203,336.191 227.41,335.703 226.602,335.703C224.91,335.703 223.004,341.609 220.859,353.398C220.176,357.141 219.422,359.789 218.594,361.336C218.016,362.379 217.512,362.918 217.098,362.918C216.738,362.918 216.559,362.434 216.559,361.48C216.559,359.934 215.566,356.242 213.605,350.41C211.609,344.398 210.258,341.391 209.574,341.391C209.09,341.391 208.766,341.535 208.621,341.859C208.492,342.184 208.078,342.344 207.395,342.344C206.621,342.344 205.613,341.77 204.355,340.637C203.094,339.484 202.48,338.582 202.48,337.898C202.48,337.574 203.004,336.531 204.047,334.785C205.094,333.023 205.758,332.156 206.027,332.156Z" style="fill:rgb(255,97,5);fill-rule:nonzero;"/>
                <path d="M252.125,341.949C252.215,341.715 252.324,341.57 252.414,341.5C252.484,341.445 252.539,341.465 252.559,341.555C252.594,341.645 252.594,341.805 252.559,342.039C252.344,343.895 251.801,345.551 250.973,347.027C250.145,348.484 249.246,349.223 248.273,349.223C247.195,349.238 246.383,348.699 245.824,347.547C245.285,346.414 245.035,344.883 245.105,342.957C245.195,340.582 246.113,337.109 247.824,332.52C249.336,328.484 250.633,325.625 251.73,323.934C252.215,323.176 252.559,322.781 252.719,322.762C252.738,322.887 252.594,323.32 252.27,324.074C249.82,329.512 248.258,333.902 247.535,337.25C247.246,338.582 247.105,339.789 247.105,340.871C247.105,342.363 247.375,343.496 247.934,344.234C248.348,344.867 248.797,345.117 249.246,345.027C250.184,344.828 251.152,343.805 252.125,341.949Z" style="fill:rgb(255,97,5);fill-rule:nonzero;"/>
                <path d="M260.586,296.266C260.586,298.426 259.687,300.875 257.902,303.629C256.086,306.508 253.746,308.973 250.867,311.008C249.715,311.801 249.047,312.215 248.832,312.215C248.797,312.215 248.777,312.176 248.777,312.141C248.777,311.98 249.266,311.367 250.234,310.305C254.969,305.141 257.347,301.684 257.347,299.937C257.347,298.281 256.57,297.473 255.059,297.473C254.215,297.473 253.441,297.707 252.773,298.172C252.254,298.516 251.945,298.695 251.82,298.73C251.73,298.66 251.621,298.586 251.496,298.551C251.531,298.391 251.621,297.941 251.746,297.219C252.523,293.656 254.285,291.891 257.074,291.891C259.414,291.891 260.586,293.352 260.586,296.266Z" style="fill:rgb(255,97,5);fill-rule:nonzero;"/>
                <path d="M345.707,286.094C347.023,286.094 348.191,286.871 349.234,288.418C350.281,289.984 351.02,292.02 351.434,294.52C351.484,294.773 351.504,294.934 351.504,294.969C351.559,295.043 351.594,295.043 351.613,294.969C351.629,294.934 351.703,294.773 351.793,294.52C352.008,293.027 352.512,290.777 353.34,287.805C354.223,285.684 355.195,284.621 356.258,284.621C356.797,284.621 357.336,284.98 357.859,285.699C358.344,286.328 358.578,286.852 358.578,287.246C358.578,287.555 358.488,287.949 358.324,288.453C358.109,289.102 357.875,289.445 357.59,289.445C357.461,289.445 357.211,289.191 356.813,288.687C356.418,288.184 356.004,287.934 355.59,287.934C354.652,287.934 353.773,290.145 352.98,294.555C352.637,296.48 352.242,297.832 351.828,298.641C351.523,299.184 351.27,299.453 351.055,299.453C350.855,299.453 350.766,299.199 350.766,298.715C350.766,297.941 350.336,296.426 349.434,294.195C348.551,291.965 347.902,290.848 347.543,290.848C347.273,290.848 347.113,290.918 347.039,291.082C346.969,291.242 346.77,291.332 346.41,291.332C346.016,291.332 345.492,291.027 344.844,290.453C344.215,289.859 343.891,289.391 343.891,289.047C343.891,288.887 344.16,288.344 344.684,287.445C345.223,286.547 345.563,286.094 345.707,286.094Z" style="fill:rgb(255,97,5);fill-rule:nonzero;"/>
                <path d="M378.484,415.84C380.305,415.84 381.941,416.918 383.383,419.078C384.84,421.238 385.848,424.066 386.441,427.559C386.496,427.918 386.531,428.133 386.531,428.187C386.605,428.297 386.641,428.297 386.676,428.187C386.711,428.133 386.785,427.918 386.93,427.559C387.215,425.469 387.938,422.355 389.07,418.234C390.313,415.262 391.66,413.789 393.121,413.789C393.875,413.789 394.613,414.293 395.371,415.301C396.02,416.184 396.344,416.883 396.344,417.441C396.344,417.875 396.234,418.434 396,419.117C395.711,420.016 395.371,420.484 394.973,420.484C394.813,420.484 394.453,420.125 393.895,419.422C393.355,418.719 392.777,418.379 392.184,418.379C390.887,418.379 389.684,421.457 388.586,427.594C388.098,430.277 387.559,432.164 386.965,433.262C386.551,434.02 386.191,434.398 385.902,434.398C385.633,434.398 385.508,434.055 385.508,433.371C385.508,432.293 384.895,430.203 383.652,427.09C382.41,423.977 381.547,422.426 381.023,422.426C380.664,422.426 380.43,422.535 380.34,422.77C380.23,422.984 379.945,423.113 379.457,423.113C378.898,423.113 378.18,422.699 377.281,421.887C376.379,421.078 375.949,420.41 375.949,419.926C375.949,419.711 376.309,418.973 377.063,417.711C377.82,416.453 378.289,415.84 378.484,415.84Z" style="fill:rgb(255,97,5);fill-rule:nonzero;"/>
                <path d="M355.859,425.039C355.949,424.84 356.059,424.695 356.148,424.586C356.258,424.535 356.293,424.551 356.293,424.641C356.328,424.73 356.328,424.895 356.293,425.129C355.43,429.914 353.988,432.309 352.008,432.309C349.883,432.309 348.84,430.547 348.84,427.035C348.84,422.699 350.082,418.16 352.586,413.41C353.215,412.238 353.574,411.629 353.719,411.609C353.734,411.609 353.754,411.629 353.754,411.645C353.754,411.879 353.574,412.547 353.215,413.66C351.594,418.613 350.785,422.066 350.785,424.047C350.785,426.746 351.504,428.117 352.98,428.117C353.824,428.117 354.781,427.09 355.859,425.039Z" style="fill:rgb(255,97,5);fill-rule:nonzero;"/>
                <path d="M326.789,420.645C326.789,422.301 326.105,424.191 324.738,426.316C323.336,428.531 321.535,430.418 319.32,431.984C318.438,432.598 317.914,432.922 317.754,432.922C317.719,432.922 317.719,432.902 317.719,432.867C317.719,432.742 318.078,432.254 318.836,431.445C322.469,427.469 324.305,424.82 324.305,423.473C324.305,422.211 323.711,421.582 322.543,421.582C321.895,421.582 321.301,421.762 320.777,422.121C320.398,422.375 320.148,422.52 320.059,422.555C319.984,422.48 319.914,422.445 319.805,422.41C319.844,422.285 319.914,421.941 320.004,421.383C320.598,418.648 321.949,417.281 324.109,417.281C325.891,417.281 326.789,418.395 326.789,420.645Z" style="fill:rgb(255,97,5);fill-rule:nonzero;"/>
                <path d="M424.891,417.316C424.891,418.973 424.207,420.863 422.84,422.984C421.434,425.199 419.633,427.09 417.422,428.656C416.539,429.27 416.016,429.59 415.855,429.59C415.816,429.59 415.816,429.574 415.816,429.539C415.816,429.41 416.18,428.926 416.934,428.117C420.57,424.137 422.406,421.492 422.406,420.141C422.406,418.883 421.813,418.25 420.641,418.25C419.992,418.25 419.398,418.434 418.879,418.793C418.5,419.043 418.246,419.187 418.156,419.223C418.086,419.152 418.016,419.117 417.906,419.078C417.941,418.953 418.016,418.613 418.105,418.055C418.699,415.316 420.047,413.949 422.207,413.949C423.988,413.949 424.891,415.066 424.891,417.316Z" style="fill:rgb(255,97,5);fill-rule:nonzero;"/>
                <path d="M284.688,416.578C286.508,416.578 288.145,417.656 289.586,419.816C291.043,421.977 292.051,424.805 292.645,428.297C292.699,428.656 292.734,428.871 292.734,428.926C292.805,429.035 292.844,429.035 292.879,428.926C292.914,428.871 292.984,428.656 293.129,428.297C293.418,426.207 294.137,423.094 295.273,418.973C296.516,416 297.863,414.527 299.32,414.527C300.078,414.527 300.816,415.031 301.57,416.039C302.219,416.918 302.543,417.621 302.543,418.18C302.543,418.613 302.438,419.168 302.203,419.855C301.914,420.754 301.57,421.223 301.176,421.223C301.016,421.223 300.652,420.863 300.098,420.16C299.555,419.457 298.98,419.117 298.387,419.117C297.09,419.117 295.883,422.195 294.785,428.332C294.301,431.012 293.762,432.902 293.164,434C292.754,434.758 292.391,435.137 292.105,435.137C291.836,435.137 291.707,434.793 291.707,434.109C291.707,433.031 291.098,430.941 289.855,427.828C288.613,424.715 287.746,423.164 287.227,423.164C286.867,423.164 286.633,423.273 286.543,423.508C286.434,423.723 286.145,423.852 285.66,423.852C285.102,423.852 284.383,423.437 283.48,422.625C282.582,421.816 282.148,421.148 282.148,420.664C282.148,420.449 282.512,419.711 283.266,418.449C284.023,417.191 284.488,416.578 284.688,416.578Z" style="fill:rgb(255,97,5);fill-rule:nonzero;"/>
                <path d="M257.347,436.16C258.265,436.16 259.109,435.766 259.937,434.973C260.875,434.074 261.344,432.941 261.344,431.57C261.344,430.059 260.496,429.32 258.805,429.32C258.066,429.32 257.418,429.539 256.859,430.004C256.859,429.125 257.472,427.754 258.715,425.902C259.812,424.172 260.93,422.805 262.027,421.797C262.297,421.492 262.367,421.238 262.277,421.004C262.207,420.809 262.027,420.809 261.738,420.969C260.297,421.832 258.769,423.488 257.148,425.902C255.293,428.602 254.375,430.922 254.375,432.887C254.375,435.062 255.367,436.16 257.347,436.16Z" style="fill:rgb(255,97,5);fill-rule:nonzero;"/>
                <path d="M273.133,316.73C273.133,318.387 272.449,320.277 271.078,322.402C269.676,324.617 267.875,326.504 265.66,328.07C264.781,328.684 264.258,329.008 264.098,329.008C264.059,329.008 264.059,328.988 264.059,328.953C264.059,328.828 264.422,328.34 265.176,327.531C268.813,323.555 270.648,320.906 270.648,319.559C270.648,318.297 270.055,317.668 268.883,317.668C268.234,317.668 267.641,317.848 267.121,318.207C266.742,318.461 266.488,318.605 266.398,318.641C266.328,318.566 266.258,318.531 266.148,318.496C266.184,318.371 266.258,318.027 266.348,317.469C266.941,314.734 268.289,313.367 270.449,313.367C272.23,313.367 273.133,314.48 273.133,316.73Z" style="fill:rgb(255,97,5);fill-rule:nonzero;"/>
                <path d="M409.984,314.426C410.902,314.426 411.75,314.031 412.578,313.238C413.516,312.34 413.98,311.207 413.98,309.836C413.98,308.324 413.137,307.586 411.445,307.586C410.707,307.586 410.059,307.805 409.5,308.273C409.5,307.391 410.113,306.023 411.355,304.168C412.453,302.441 413.566,301.07 414.664,300.062C414.938,299.758 415.008,299.504 414.918,299.273C414.848,299.074 414.664,299.074 414.379,299.234C412.938,300.102 411.406,301.754 409.789,304.168C407.934,306.867 407.016,309.191 407.016,311.152C407.016,313.328 408.008,314.426 409.984,314.426Z" style="fill:rgb(255,97,5);fill-rule:nonzero;"/>
                <path d="M287.945,390.711C288.863,390.711 289.711,390.316 290.539,389.523C291.473,388.625 291.941,387.488 291.941,386.121C291.941,384.609 291.098,383.871 289.402,383.871C288.664,383.871 288.02,384.086 287.461,384.555C287.461,383.672 288.07,382.305 289.313,380.453C290.41,378.723 291.527,377.355 292.625,376.348C292.895,376.043 292.969,375.789 292.879,375.555C292.805,375.359 292.625,375.359 292.34,375.52C290.898,376.383 289.367,378.039 287.746,380.453C285.895,383.152 284.977,385.473 284.977,387.437C284.977,389.613 285.965,390.711 287.945,390.711Z" style="fill:rgb(255,97,5);fill-rule:nonzero;"/>
                <path d="M379.637,385.508C379.727,385.277 379.836,385.133 379.926,385.059C379.996,385.004 380.051,385.023 380.07,385.113C380.105,385.203 380.105,385.367 380.07,385.602C379.855,387.453 379.313,389.109 378.484,390.586C377.656,392.043 376.758,392.781 375.785,392.781C374.707,392.801 373.895,392.258 373.34,391.109C372.797,389.973 372.547,388.445 372.617,386.52C372.707,384.176 373.43,381.172 374.762,377.5C375.895,374.367 376.902,372.172 377.785,370.91C378.344,370.156 378.664,369.758 378.758,369.742C378.793,369.867 378.648,370.301 378.324,371.055C376.363,375.41 375.137,379.445 374.652,383.117C374.578,383.531 374.563,383.961 374.563,384.375C374.563,387.309 375.281,388.715 376.758,388.586C377.641,388.48 378.594,387.453 379.637,385.508Z" style="fill:rgb(255,97,5);fill-rule:nonzero;"/>
            </g>
        </g>
    </g>
</svg>
