<?xml version="1.0" encoding="UTF-8" standalone="no"?>
<!DOCTYPE svg PUBLIC "-//W3C//DTD SVG 1.1//EN" "http://www.w3.org/Graphics/SVG/1.1/DTD/svg11.dtd">
<svg width="100%" height="100%" viewBox="0 0 496 505" version="1.1" xmlns="http://www.w3.org/2000/svg" xmlns:xlink="http://www.w3.org/1999/xlink" xml:space="preserve" xmlns:serif="http://www.serif.com/" style="fill-rule:evenodd;clip-rule:evenodd;stroke-linejoin:round;stroke-miterlimit:2;">
    <g transform="matrix(1,0,0,1,-110.139,-43.9995)">
        <g>
            <g>
                <g>
                    <g id="path9" transform="matrix(1,0,0,1,110.139,43.9995)">
                        <path d="M24,356.85C24,356.61 24.48,355.96 25.43,354.88C30.44,349.52 32.94,345.94 32.94,344.15C32.82,342.37 31.99,341.47 30.44,341.47C29.6,341.47 28.89,341.68 28.29,342.1C27.7,342.52 27.34,342.72 27.22,342.72L26.86,342.55L27.04,341.29C27.87,337.6 29.72,335.75 32.58,335.75C35.09,335.75 36.34,337.24 36.34,340.22C36.34,342.49 35.38,345.08 33.48,348C31.57,350.92 29.13,353.45 26.15,355.6C24.95,356.43 24.24,356.85 24,356.85Z" style="fill:rgb(97,187,0);"/>
                    </g>
                    <g id="path91" serif:id="path9" transform="matrix(1,0,0,1,208.139,127.999)">
                        <path d="M24,356.85C24,356.61 24.48,355.96 25.43,354.88C30.44,349.52 32.94,345.94 32.94,344.15C32.82,342.37 31.99,341.47 30.44,341.47C29.6,341.47 28.89,341.68 28.29,342.1C27.7,342.52 27.34,342.72 27.22,342.72L26.86,342.55L27.04,341.29C27.87,337.6 29.72,335.75 32.58,335.75C35.09,335.75 36.34,337.24 36.34,340.22C36.34,342.49 35.38,345.08 33.48,348C31.57,350.92 29.13,353.45 26.15,355.6C24.95,356.43 24.24,356.85 24,356.85Z" style="fill:rgb(1,185,72);"/>
                    </g>
                    <g id="path92" serif:id="path9" transform="matrix(1,0,0,1,139.139,4.49946)">
                        <path d="M24,356.85C24,356.61 24.48,355.96 25.43,354.88C30.44,349.52 32.94,345.94 32.94,344.15C32.82,342.37 31.99,341.47 30.44,341.47C29.6,341.47 28.89,341.68 28.29,342.1C27.7,342.52 27.34,342.72 27.22,342.72L26.86,342.55L27.04,341.29C27.87,337.6 29.72,335.75 32.58,335.75C35.09,335.75 36.34,337.24 36.34,340.22C36.34,342.49 35.38,345.08 33.48,348C31.57,350.92 29.13,353.45 26.15,355.6C24.95,356.43 24.24,356.85 24,356.85Z" style="fill:rgb(1,185,72);"/>
                    </g>
                    <g id="path93" serif:id="path9" transform="matrix(1,0,0,1,283.139,-31.5005)">
                        <path d="M24,356.85C24,356.61 24.48,355.96 25.43,354.88C30.44,349.52 32.94,345.94 32.94,344.15C32.82,342.37 31.99,341.47 30.44,341.47C29.6,341.47 28.89,341.68 28.29,342.1C27.7,342.52 27.34,342.72 27.22,342.72L26.86,342.55L27.04,341.29C27.87,337.6 29.72,335.75 32.58,335.75C35.09,335.75 36.34,337.24 36.34,340.22C36.34,342.49 35.38,345.08 33.48,348C31.57,350.92 29.13,353.45 26.15,355.6C24.95,356.43 24.24,356.85 24,356.85Z" style="fill:rgb(1,185,72);"/>
                    </g>
                    <g id="path94" serif:id="path9" transform="matrix(1,0,0,1,475.139,-19.0005)">
                        <path d="M24,356.85C24,356.61 24.48,355.96 25.43,354.88C30.44,349.52 32.94,345.94 32.94,344.15C32.82,342.37 31.99,341.47 30.44,341.47C29.6,341.47 28.89,341.68 28.29,342.1C27.7,342.52 27.34,342.72 27.22,342.72L26.86,342.55L27.04,341.29C27.87,337.6 29.72,335.75 32.58,335.75C35.09,335.75 36.34,337.24 36.34,340.22C36.34,342.49 35.38,345.08 33.48,348C31.57,350.92 29.13,353.45 26.15,355.6C24.95,356.43 24.24,356.85 24,356.85Z" style="fill:rgb(0,139,150);"/>
                    </g>
                    <g id="path10" transform="matrix(1,0,0,1,110.139,43.9995)">
                        <path d="M429.5,421.35C429.5,421.11 429.98,420.46 430.93,419.38C435.94,414.02 438.44,410.44 438.44,408.65C438.32,406.87 437.49,405.97 435.94,405.97C435.1,405.97 434.39,406.18 433.79,406.6C433.2,407.02 432.84,407.22 432.72,407.22L432.36,407.05L432.54,405.79C433.37,402.1 435.22,400.25 438.08,400.25C440.59,400.25 441.84,401.74 441.84,404.72C441.84,406.99 440.88,409.58 438.98,412.5C437.07,415.42 434.63,417.95 431.65,420.1C430.45,420.93 429.74,421.35 429.5,421.35Z" style="fill:rgb(48,113,207);"/>
                    </g>
                    <g id="path11" transform="matrix(1,0,0,1,110.139,43.9995)">
                        <path d="M19.5,187.75C19.5,187.42 20.17,186.5 21.5,185C28.5,177.5 32,172.5 32,170C31.83,167.5 30.67,166.25 28.5,166.25C27.33,166.25 26.33,166.54 25.5,167.13C24.67,167.71 24.17,168 24,168L23.5,167.75L23.75,166C24.92,160.83 27.5,158.25 31.5,158.25C35,158.25 36.75,160.33 36.75,164.5C36.75,167.67 35.42,171.29 32.75,175.38C30.08,179.46 26.67,183 22.5,186C20.83,187.17 19.83,187.75 19.5,187.75Z" style="fill:rgb(153,63,177);"/>
                    </g>
                    <g id="path12" transform="matrix(1,0,0,1,110.139,43.9995)">
                        <path d="M198.25,443.75L198.25,443.5C198.25,443.33 198.92,442.5 200.25,441C207.25,433.5 210.75,428.42 210.75,425.75C210.58,423.42 209.42,422.25 207.25,422.25C206.08,422.25 205.08,422.5 204.25,423L202.75,424L202.25,423.75L202.5,421.75C203.67,416.75 206.42,414.25 210.75,414.25C213.92,414.25 215.5,416.33 215.5,420.5C215.5,423.67 214.17,427.29 211.5,431.38C208.83,435.46 205.42,439 201.25,442C199.58,443.17 198.58,443.75 198.25,443.75Z" style="fill:rgb(213,0,25);"/>
                    </g>
                    <g id="path13" transform="matrix(1,0,0,1,110.139,43.9995)">
                        <path d="M384,301.75C387.5,303.58 392.08,304.5 397.75,304.5C403.75,304.5 409.5,302.17 415,297.5C416.67,296.17 417.5,291.25 417.5,282.75C417.5,277.58 415.33,244.92 411,184.75C406.5,124.42 404.25,91 404.25,84.5C404.25,78.67 403.33,73.83 401.5,70C401.5,67.83 403.25,62.75 406.75,54.75C407.08,53.75 407.5,53.25 408,53.25C408.33,53.25 408.67,53.75 409,54.75C410,56.92 412.33,62.67 416,72C419.67,81.83 421.92,87.92 422.75,90.25C423.08,91.92 423.25,93.25 423.25,94.25C423.25,96.92 420.67,95.25 415.5,89.25C414.83,88.25 414.5,88.58 414.5,90.25C414.5,90.75 416.58,118.92 420.75,174.75C424.75,230.58 426.75,261.58 426.75,267.75C426.75,285.75 423.58,299.83 417.25,310C411.58,318.67 405.08,323 397.75,323C391.42,323 386.92,322.58 384.25,321.75C378.25,320.08 373.33,316.25 369.5,310.25C367,306.25 364.5,302.08 362,297.75C359.83,294.42 357.67,292.75 355.5,292.75C348.5,292.75 341.17,298.58 333.5,310.25C332.17,312.25 329.75,317.67 326.25,326.5C322.75,335.33 319.75,341.75 317.25,345.75C313.08,351.75 308.67,354.75 304,354.75C297.33,354.75 291.67,349.42 287,338.75C282.83,329.42 280.75,319.67 280.75,309.5C280.75,297.33 281.92,287.67 284.25,280.5C285.08,277.83 285.83,276.5 286.5,276.5C287.17,276.5 287.33,278.08 287,281.25C286,289.08 285.5,295.67 285.5,301C285.5,326.83 291.5,339.75 303.5,339.75C308.17,339.75 312.58,336 316.75,328.5L318.75,324C322.25,316.5 325.67,309 329,301.5C332.83,294.17 337.42,287.83 342.75,282.5C348.08,277.17 353,274.5 357.5,274.5C360.83,274.5 363.92,276.58 366.75,280.75L373.75,292.25C377.08,296.92 380.5,300.08 384,301.75Z" style="fill:rgb(255,161,0);"/>
                    </g>
                    <path id="path1" d="M449.639,509.749L449.389,509.749C449.389,509.419 450.719,508.669 453.389,507.499C460.889,504.499 472.469,499.329 488.139,491.999C499.469,485.829 506.719,480.419 509.889,475.749C511.059,473.079 512.969,469.669 515.639,465.499C515.969,465.169 516.389,464.999 516.889,464.999L517.639,465.249C519.969,460.579 522.469,458.249 525.139,458.249C526.969,458.249 528.719,459.329 530.389,461.499C532.059,463.669 532.889,466.249 532.889,469.249C532.889,470.419 532.719,471.499 532.389,472.499C531.219,477.329 529.639,479.749 527.639,479.749C525.969,479.749 523.769,478.829 521.019,476.999C518.269,475.169 516.219,473.419 514.889,471.749C513.219,476.919 511.059,481.079 508.389,484.249C503.719,489.579 497.389,494.329 489.389,498.499C483.219,501.999 479.469,503.749 478.139,503.749C476.809,503.749 473.059,504.579 466.889,506.249C457.559,508.579 451.809,509.749 449.639,509.749ZM529.139,472.499L529.139,470.999C528.969,469.999 528.349,468.879 527.269,467.629C526.179,466.379 525.139,465.749 524.139,465.749C522.639,465.749 521.389,466.499 520.389,467.999C522.059,469.329 524.559,470.749 527.889,472.249C528.219,472.419 528.639,472.499 529.139,472.499Z" style="fill:rgb(213,0,25);"/>
                    <g id="path15" transform="matrix(1,0,0,1,110.139,43.9995)">
                        <path d="M259.25,504.25C256.25,504.25 253.79,503.46 251.88,501.88C249.96,500.29 249,498.25 249,495.75C249,491.42 250.79,487.21 254.38,483.13C257.96,479.04 261.5,475.25 265,471.75C265.33,471.42 265.5,471.08 265.5,470.75C265.5,470.42 265.17,470.08 264.5,469.75C261.83,468.92 259,468.5 256,468.5C254.17,468.5 252.33,469 250.5,470L249.5,470L249.75,469C250.92,466 252.21,463.96 253.63,462.88C255.04,461.79 257.33,461.25 260.5,461.25C267.67,461.25 271.25,463 271.25,466.5C271.25,469.17 269,472.92 264.5,477.75L254.75,487.75C253.25,489.58 252.5,491.17 252.5,492.5C252.5,495.5 255.83,497 262.5,497C268.67,497 275.25,496 282.25,494L285,493.25L285.25,493.5C285.25,493.67 284.5,494.42 283,495.75C276.83,501.42 268.92,504.25 259.25,504.25Z" style="fill:rgb(0,139,150);"/>
                    </g>
                    <g id="path16" transform="matrix(1,0,0,1,110.139,43.9995)">
                        <path d="M71.25,272.75C60.58,272.75 53.08,267.58 48.75,257.25C46.42,251.42 45.25,244.67 45.25,237C45.25,226.5 46.42,216.83 48.75,208C49.42,205.5 49.75,203.83 49.75,203L49.5,202.5C49,202.5 48,203.67 46.5,206C44,209.67 41.42,217.33 38.75,229C35.42,243.83 33.17,252.83 32,256C30.67,260.17 28.67,263.5 26,266C24,268.33 22.25,269.5 20.75,269.5C13.75,269.5 8.33,265.08 4.5,256.25C1.5,248.92 0,240.08 0,229.75C0,222.58 1.08,214.75 3.25,206.25C4.25,202.92 5.08,201.25 5.75,201.25C6.08,201.25 6.25,201.75 6.25,202.75C6.25,203.75 6.08,205.17 5.75,207C4.58,213.33 4,219.17 4,224.5C4,245.5 8.33,256 17,256C20.83,256 24,253.17 26.5,247.5C28,244 29.83,237.33 32,227.5C34.67,216.5 36.83,208.5 38.5,203.5C40.67,197.67 43.17,192.5 46,188C49.5,182.83 52.42,180.25 54.75,180.25C56.75,180.25 57.75,182.42 57.75,186.75C57.75,190.08 56.75,197.04 54.75,207.63C52.75,218.21 51.75,225.33 51.75,229C51.75,237 53.42,243.21 56.75,247.63C60.08,252.04 64.67,254.25 70.5,254.25C81,254.25 88.92,250.92 94.25,244.25C98.42,238.92 100.5,232.42 100.5,224.75C100.5,212.58 98.75,200.83 95.25,189.5L93.25,184C93.25,179.67 94.67,173.83 97.5,166.5C98.17,165 98.67,164.25 99,164.25C99.5,164.25 100.25,165.33 101.25,167.5C105.08,175.67 108.17,188.17 110.5,205C112.67,221 115.75,232.42 119.75,239.25C123.75,246.08 129.92,249.5 138.25,249.5C145.08,249.5 149.58,247 151.75,242C151.75,240.17 150.33,236.42 147.5,230.75C143.83,223.58 141.17,217.67 139.5,213C136.5,203.5 134.42,194.58 133.25,186.25L132.25,180.5C131.92,178.67 131.08,176.92 129.75,175.25C132.75,165.92 134.67,161.25 135.5,161.25C136,161.25 136.75,162 137.75,163.5C147.42,176.67 152.25,184.25 152.25,186.25C152.25,187.08 151.92,187.5 151.25,187.5C150.08,187.5 147.83,186.5 144.5,184.5C144.33,184.5 144.08,184.67 143.75,185C144.92,189 146.75,194.5 149.25,201.5C154.75,217.33 157.5,228.83 157.5,236C157.5,243.17 156.42,249.5 154.25,255C150.75,264.17 144.58,268.75 135.75,268.75C126.25,268.75 118.83,264.67 113.5,256.5C110.17,251.5 107.25,244.17 104.75,234.5C103.75,244.33 100.67,252.83 95.5,260C89.17,268.5 81.08,272.75 71.25,272.75Z" style="fill:rgb(47,113,207);"/>
                    </g>
                    <g id="path17" transform="matrix(1,0,0,1,110.139,43.9995)">
                        <path d="M72,294.25C71.67,294.25 71.5,293.5 71.5,292L71.75,286.5C72.42,281.67 72.75,275.92 72.75,269.25C72.75,263.42 71.25,239.08 68.25,196.25C65.25,153.42 63.75,129.42 63.75,124.25C63.75,118.42 62.75,113.58 60.75,109.75C60.75,107.58 62.5,102.42 66,94.25C66.5,93.42 66.83,93 67,93C67.5,93 68,93.42 68.5,94.25L75.25,111.75C80.08,124.75 82.5,132.08 82.5,133.75C82.5,134.58 82.25,135 81.75,135C80.58,135 78.25,133 74.75,129C74.58,128.67 74.42,128.5 74.25,128.5C74.08,128.5 74,129 74,130C74,130.67 75.33,149.67 78,187C80.67,224.33 82,245.42 82,250.25C82,267.08 79.08,281.33 73.25,293C72.58,293.83 72.17,294.25 72,294.25Z" style="fill:rgb(48,113,207);"/>
                    </g>
                    <g id="path18" transform="matrix(1,0,0,1,110.139,43.9995)">
                        <path d="M84.75,424.25C68.25,424.25 56.42,417.83 49.25,405C44.25,396.5 41.75,386.5 41.75,375C41.75,361 44.08,349.33 48.75,340C50.58,336.5 51.83,334.75 52.5,334.75C52.83,334.75 53,335.08 53,335.75C53,336.75 52.42,338.58 51.25,341.25C47.75,350.92 46,359.83 46,368C46,375.83 48.17,383.08 52.5,389.75C59.33,400.58 70.42,406 85.75,406C99.42,406 116.17,399.92 136,387.75C162,372.25 175,360.42 175,352.25C175,344.75 173.5,320.13 170.5,278.38C167.5,236.63 166,212.88 166,207.13C166,201.38 165.08,196.58 163.25,192.75C163.25,190.58 165,185.42 168.5,177.25C168.83,176.25 169.25,175.75 169.75,175.75C170.08,175.75 170.5,176.25 171,177.25C180.33,200.58 185,213.75 185,216.75C185,217.58 184.75,218 184.25,218C183.08,218 180.75,215.92 177.25,211.75L176.75,211.25C176.42,211.25 176.25,211.83 176.25,213L180,261.25C182.33,293.42 183.5,312.42 183.5,318.25C183.5,335.58 182.17,348.75 179.5,357.75C177.5,364.58 174.42,370.67 170.25,376C164.25,383.17 154.33,391.67 140.5,401.5C119.17,416.67 100.58,424.25 84.75,424.25Z" style="fill:rgb(0,139,150);"/>
                    </g>
                    <path id="path0" d="M278.639,351.499C278.969,351.329 279.389,351.169 279.889,350.999L285.639,348.499C290.309,346.169 293.219,344.669 294.389,343.999C299.389,341.329 304.309,337.919 309.139,333.749C310.639,332.579 311.809,331.999 312.639,331.999C313.309,331.999 313.639,332.499 313.639,333.499C313.639,334.669 313.309,336.499 312.639,338.999C312.139,341.329 311.889,343.169 311.889,344.499C311.719,351.329 316.469,354.749 326.139,354.749C333.639,354.749 339.889,351.499 344.889,344.999C348.059,339.999 351.219,335.169 354.389,330.499C355.389,329.169 356.309,328.499 357.139,328.499C358.309,328.499 358.559,329.829 357.889,332.499C356.719,337.829 356.139,340.169 356.139,339.499C356.139,341.669 357.309,343.749 359.639,345.749C361.969,347.579 364.809,348.499 368.139,348.499C372.309,348.499 375.059,347.419 376.389,345.249C376.389,345.079 374.969,342.669 372.139,337.999C372.809,335.499 373.969,331.249 375.639,325.249C376.139,323.579 376.639,322.749 377.139,322.749C377.639,322.749 378.389,323.249 379.389,324.249C381.889,327.919 383.139,332.169 383.139,336.999C383.139,344.669 381.469,351.169 378.139,356.499C374.309,363.169 368.889,366.499 361.889,366.499C357.059,366.499 352.559,362.749 348.389,355.249C341.719,367.249 333.059,373.249 322.389,373.249C309.889,373.249 303.639,366.169 303.639,351.999C298.639,357.829 290.719,363.079 279.889,367.749L279.389,368.249C279.389,371.749 278.469,376.169 276.639,381.499C274.469,388.499 271.389,394.249 267.389,398.749C258.059,409.579 247.969,419.079 237.139,427.249C221.139,439.579 206.969,445.749 194.639,445.749C184.639,445.749 176.809,441.999 171.139,434.499C166.309,427.829 163.889,419.499 163.889,409.499C163.889,396.669 166.559,383.499 171.889,369.999C173.219,367.169 174.139,365.749 174.639,365.749C174.809,365.749 174.889,365.999 174.889,366.499C174.889,367.499 174.719,368.919 174.389,370.749C170.559,384.079 168.639,394.249 168.639,401.249C168.639,407.419 170.219,412.829 173.389,417.499C178.059,423.999 185.639,427.249 196.139,427.249C205.309,427.249 216.219,423.329 228.889,415.499C239.389,409.169 249.389,401.419 258.889,392.249C267.559,384.079 271.889,378.669 271.889,375.999C271.889,373.829 271.469,371.749 270.639,369.749C267.139,371.079 261.969,371.749 255.139,371.749C240.639,371.749 233.389,366.749 233.389,356.749C233.389,349.079 235.809,342.329 240.639,336.499C244.969,331.169 249.719,328.499 254.889,328.499C258.719,328.499 262.809,330.829 267.139,335.499C271.139,339.829 274.719,345.249 277.889,351.749C278.059,351.749 278.309,351.669 278.639,351.499ZM253.889,354.499C256.559,354.499 259.469,354.169 262.639,353.499C258.309,347.829 254.309,344.999 250.639,344.999C245.309,344.999 242.639,346.499 242.639,349.499C242.639,352.829 246.389,354.499 253.889,354.499Z" style="fill:rgb(0,139,150);"/>
                    <g id="path20" transform="matrix(1,0,0,1,110.139,43.9995)">
                        <path d="M126.75,468C120.58,468 115.17,465.21 110.5,459.63C105.83,454.04 103.5,447.08 103.5,438.75C103.5,427.42 108.17,412.58 117.5,394.25C118.5,392.25 119.25,391.25 119.75,391.25C120.08,391.42 120.25,391.67 120.25,392C120.25,394 118.21,400.46 114.13,411.38C110.04,422.29 108,430.92 108,437.25C108,442.08 109.17,446 111.5,449C113.83,452 117.17,453.5 121.5,453.5C128.17,453.5 136,449.42 145,441.25L168.75,415.5C190.42,392 209.83,380.25 227,380.25C231.83,380.25 236.04,381.75 239.63,384.75C243.21,387.75 245,391.25 245,395.25C245,400.25 244.08,404.58 242.25,408.25C241.75,409.58 241.42,410.25 241.25,410.25C240.75,410.25 240.17,409.58 239.5,408.25C236,401.92 230.58,398.75 223.25,398.75C210.08,398.75 195.08,407.33 178.25,424.5L150,455.25C141.67,463.75 133.92,468 126.75,468Z" style="fill:rgb(0,139,150);"/>
                    </g>
                    <path id="path2" d="M447.639,531.249C441.639,531.249 434.139,529.749 425.139,526.749C412.639,522.579 402.639,516.829 395.139,509.499C388.309,502.669 383.219,494.249 379.889,484.249C377.889,478.579 375.559,468.749 372.889,454.749C372.889,457.249 372.719,459.499 372.389,461.499C371.889,466.329 371.059,469.669 369.889,471.499C360.719,485.169 348.809,497.419 334.139,508.249C318.809,519.749 305.639,525.499 294.639,525.499C288.469,525.499 283.639,522.749 280.139,517.249C277.309,512.749 275.889,507.329 275.889,500.999C275.889,487.829 278.639,474.579 284.139,461.249C285.309,458.419 286.139,456.999 286.639,456.999C286.969,456.999 287.139,457.329 287.139,457.999C287.139,458.829 286.889,460.249 286.389,462.249C282.559,475.419 280.639,485.249 280.639,491.749C280.639,496.919 282.099,500.749 285.019,503.249C287.929,505.749 291.559,506.999 295.889,506.999C307.719,506.999 322.889,499.579 341.389,484.749C358.559,470.919 368.059,460.079 369.889,452.249C368.559,441.749 364.059,425.919 356.389,404.749C349.219,384.919 345.559,374.999 345.389,374.999C345.389,371.329 346.309,366.249 348.139,359.749C348.309,359.079 348.639,358.749 349.139,358.749C350.969,358.749 354.889,365.169 360.889,377.999C366.559,389.669 370.639,401.329 373.139,412.999L376.139,427.999C377.639,436.499 379.219,444.919 380.889,453.249C386.389,479.579 398.059,496.329 415.889,503.499C415.889,489.499 419.559,480.249 426.889,475.749C433.059,472.079 443.809,467.329 459.139,461.499L389.889,461.499C387.059,461.499 385.639,460.669 385.639,458.999L385.889,457.499C386.559,449.669 388.969,443.169 393.139,437.999C404.809,423.329 423.809,409.499 450.139,396.499L445.389,386.999C444.559,384.999 444.139,382.419 444.139,379.249C444.139,374.579 445.309,370.669 447.639,367.499C450.469,363.329 454.809,361.249 460.639,361.249C464.969,361.249 471.389,364.169 479.889,369.999C488.389,375.829 492.639,380.669 492.639,384.499C491.309,389.829 489.809,394.749 488.139,399.249L472.139,404.249L462.389,406.999L462.389,410.249C462.389,413.919 461.889,415.749 460.889,415.749C459.719,415.749 458.469,413.669 457.139,409.499C449.639,412.329 440.139,417.329 428.639,424.499C417.139,431.669 408.889,437.919 403.889,443.249C410.389,443.749 419.889,443.999 432.389,443.999C447.559,443.999 466.639,443.669 489.639,442.999L521.139,441.749C522.469,441.749 523.139,441.999 523.139,442.499C523.139,442.999 521.469,447.499 518.139,455.999C517.639,457.329 516.639,458.249 515.139,458.749C452.809,478.749 421.639,490.999 421.639,495.499C421.639,499.329 431.139,505.579 450.139,514.249C451.139,514.579 451.639,515.499 451.639,516.999L450.139,529.249C449.969,530.579 449.139,531.249 447.639,531.249ZM456.889,393.249C465.219,390.579 470.559,388.669 472.889,387.499C472.889,385.999 470.059,384.079 464.389,381.749C459.719,379.579 455.969,378.499 453.139,378.499C451.469,378.499 450.639,378.829 450.639,379.499C450.639,380.169 452.639,384.669 456.639,392.999L456.889,393.249Z" style="fill:rgb(0,185,72);"/>
                    <path id="path3" d="M270.639,92.999C270.469,92.999 270.389,92.919 270.389,92.749C270.389,92.579 271.059,92.079 272.389,91.249L287.889,81.999C293.719,78.669 298.219,75.419 301.389,72.249C297.389,71.419 295.389,69.579 295.389,66.749C295.389,64.419 295.969,62.249 297.139,60.249C296.809,59.079 296.639,58.079 296.639,57.249C296.639,56.079 297.019,55.129 297.769,54.379C298.519,53.629 299.469,53.249 300.639,53.249C301.809,53.249 303.139,53.579 304.639,54.249C309.809,57.249 313.309,60.749 315.139,64.749C315.139,66.919 314.719,68.919 313.889,70.749C313.059,72.579 312.219,73.499 311.389,73.499L304.139,72.749C301.809,75.919 298.969,78.749 295.639,81.249C291.639,84.249 287.969,86.499 284.639,87.999L272.889,92.249C271.889,92.749 271.139,92.999 270.639,92.999ZM312.389,68.749L312.139,67.499C310.969,64.999 309.059,63.169 306.389,61.999C306.389,64.329 306.139,66.249 305.639,67.749C305.969,67.919 308.059,68.249 311.889,68.749L312.389,68.749ZM303.639,67.499L303.889,65.499L303.639,63.249C303.139,61.579 302.389,60.749 301.389,60.749C300.889,60.749 300.139,61.289 299.139,62.379C298.139,63.459 297.639,64.249 297.639,64.749C297.639,65.919 299.639,66.829 303.639,67.499Z" style="fill:rgb(105,59,158);"/>
                    <g id="path24" transform="matrix(1,0,0,1,110.139,43.9995)">
                        <path d="M301.5,321C301.5,320.83 302,320.17 303,319C307.83,313.67 310.25,310.08 310.25,308.25C310.25,306.58 309.5,305.75 308,305.75C307.17,305.75 306.42,305.96 305.75,306.38C305.08,306.79 304.67,307 304.5,307L304.25,306.75L304.5,305.5C305.33,301.83 307.17,300 310,300C312.5,300 313.75,301.5 313.75,304.5C313.75,306.67 312.79,309.21 310.88,312.13C308.96,315.04 306.58,317.58 303.75,319.75L301.5,321Z" style="fill:rgb(1,185,72);"/>
                    </g>
                    <g id="path25" transform="matrix(1,0,0,1,110.139,43.9995)">
                        <path d="M367,52.25C364,52.25 362.5,49.83 362.5,45C362.5,39.17 364.25,33.08 367.75,26.75C368.58,25.08 369.08,24.25 369.25,24.25C369.25,24.58 369,25.5 368.5,27C366.33,33.67 365.25,38.33 365.25,41C365.25,44.67 366.25,46.5 368.25,46.5C369.25,46.5 370.58,45.08 372.25,42.25C372.42,41.92 372.58,41.75 372.75,41.75L372.75,42.5C371.42,49 369.5,52.25 367,52.25Z" style="fill:rgb(153,63,177);"/>
                    </g>
                    <g id="path26" transform="matrix(1,0,0,1,110.139,43.9995)">
                        <path d="M220.75,501.75C220.75,501.42 221.42,500.5 222.75,499C229.75,491.5 233.25,486.42 233.25,483.75C233.08,481.42 231.92,480.25 229.75,480.25C228.58,480.25 227.5,480.58 226.5,481.25L225.25,482L224.75,481.75L225,479.75C226.17,474.58 228.75,472 232.75,472C236.25,472 238,474.17 238,478.5C238,481.67 236.67,485.29 234,489.38C231.33,493.46 227.92,497 223.75,500C222.08,501.17 221.08,501.75 220.75,501.75Z" style="fill:rgb(105,59,158);"/>
                    </g>
                    <g id="path27" transform="matrix(1,0,0,1,110.139,43.9995)">
                        <path d="M263.25,161.75C263.25,161.25 264.08,160 265.75,158C274.75,148.33 279.25,141.92 279.25,138.75C279.25,135.58 277.83,134 275,134C273.33,134 271.96,134.42 270.88,135.25C269.79,136.08 269.08,136.5 268.75,136.5L268.25,136.25L268.75,133.5C270.25,126.83 273.58,123.5 278.75,123.5C283.08,123.5 285.25,126.25 285.25,131.75C285.25,135.75 283.5,140.5 280,146C276.5,151.5 272,156.08 266.5,159.75C264.67,161.08 263.58,161.75 263.25,161.75Z" style="fill:rgb(153,63,177);"/>
                    </g>
                    <g id="path28" transform="matrix(1,0,0,1,110.139,43.9995)">
                        <path d="M278.75,226.5C278.75,226.17 279.42,225.25 280.75,223.75C287.58,216.25 291,211.25 291,208.75C291,206.25 289.92,205 287.75,205C286.42,205 285.33,205.29 284.5,205.88C283.67,206.46 283.17,206.75 283,206.75L282.5,206.5C282.67,206.33 282.83,205.67 283,204.5C284.17,199.5 286.83,197 291,197C294.17,197 295.75,199.08 295.75,203.25C295.75,206.42 294.46,210.04 291.88,214.13C289.29,218.21 285.92,221.75 281.75,224.75C280.08,225.92 279.08,226.5 278.75,226.5Z" style="fill:rgb(48,113,207);"/>
                    </g>
                    <g id="path29" transform="matrix(1,0,0,1,110.139,43.9995)">
                        <path d="M324.25,185.25C320.25,185.25 318.25,181.92 318.25,175.25C318.25,167.08 320.67,158.5 325.5,149.5C325.67,149 325.92,148.58 326.25,148.25C326.92,146.92 327.33,146.25 327.5,146.25L326.75,150C323.58,159.5 322,166.08 322,169.75C322,174.92 323.42,177.5 326.25,177.5C327.75,177.5 329.58,175.5 331.75,171.5C331.75,171.33 331.79,171.17 331.88,171C331.96,170.83 332.08,170.75 332.25,170.75L332.5,170.5L332.5,171.75C330.83,180.75 328.08,185.25 324.25,185.25Z" style="fill:rgb(0,139,150);"/>
                    </g>
                    <g id="path30" transform="matrix(1,0,0,1,110.139,43.9995)">
                        <path d="M275.25,383.35C275.25,383.11 275.73,382.46 276.68,381.38C281.69,376.02 284.19,372.44 284.19,370.65C284.07,368.87 283.24,367.97 281.69,367.97C280.85,367.97 280.14,368.18 279.54,368.6C278.95,369.02 278.59,369.22 278.47,369.22L278.11,369.05L278.29,367.79C279.12,364.1 280.97,362.25 283.83,362.25C286.34,362.25 287.59,363.74 287.59,366.72C287.59,368.99 286.63,371.58 284.73,374.5C282.82,377.42 280.38,379.95 277.4,382.1C276.2,382.93 275.49,383.35 275.25,383.35Z" style="fill:rgb(105,59,158);"/>
                    </g>
                    <g id="path31" transform="matrix(1,0,0,1,110.139,43.9995)">
                        <path d="M91.25,103.25C90.92,103.08 90.75,102.5 90.75,101.5C90.75,99.67 89.58,95.33 87.25,88.5C84.92,81.67 83.33,78.25 82.5,78.25C82,78.25 81.67,78.42 81.5,78.75C81.33,79.08 80.83,79.25 80,79.25C79.17,79.25 78,78.58 76.5,77.25C75,75.92 74.25,74.83 74.25,74C74.25,73.67 74.88,72.5 76.13,70.5C77.38,68.5 78.17,67.5 78.5,67.5C81.17,67.5 83.88,70.04 86.63,75.13C89.38,80.21 91.25,85.83 92.25,92L92.25,93L92.5,93C92.67,93 92.83,92.67 93,92C93.67,86.67 95.08,79.75 97.25,71.25C99.25,66.42 101.42,64 103.75,64C105.08,64 106.29,64.75 107.38,66.25C108.46,67.75 109,69 109,70C109,70.67 108.83,71.67 108.5,73C108.17,74.33 107.58,75 106.75,75C106.58,75 106.04,74.42 105.13,73.25C104.21,72.08 103.25,71.5 102.25,71.5C100.25,71.5 98.08,78.33 95.75,92C94.25,99.5 92.75,103.25 91.25,103.25Z" style="fill:rgb(213,0,25);"/>
                    </g>
                    <g id="path32" transform="matrix(1,0,0,1,110.139,43.9995)">
                        <path d="M135.5,61C132,61 130.25,58.17 130.25,52.5C130.25,45.5 132.33,38.17 136.5,30.5C137.33,28.5 137.92,27.5 138.25,27.5C138.25,27.83 137.92,28.92 137.25,30.75C134.58,38.75 133.25,44.33 133.25,47.5C133.25,52 134.42,54.25 136.75,54.25C138.25,54.25 139.83,52.58 141.5,49.25L142,48.75L142,48.5L142.25,48.5L142.25,49.5C140.92,57.17 138.67,61 135.5,61Z" style="fill:rgb(0,139,150);"/>
                    </g>
                    <g id="path33" transform="matrix(1,0,0,1,110.639,43.9995)">
                        <path d="M95,364.25C94.5,364.25 94.25,363.54 94.25,362.13C94.25,360.71 93.25,357.46 91.25,352.38C89.25,347.29 87.83,344.75 87,344.75C86.33,344.75 85.96,344.96 85.88,345.38C85.79,345.79 85.33,346 84.5,346C83.67,346 82.54,345.33 81.13,344C79.71,342.67 79,341.58 79,340.75C79,340.42 79.58,339.21 80.75,337.13C81.92,335.04 82.67,334 83,334C86,334 88.67,335.75 91,339.25C93.33,342.75 94.92,347.33 95.75,353C95.92,353.67 96,354.04 96,354.13C96,354.21 96.08,354.25 96.25,354.25L96.75,353C97.08,349.67 98.25,344.67 100.25,338C102.25,333.17 104.42,330.75 106.75,330.75C107.92,330.75 109.08,331.54 110.25,333.13C111.42,334.71 112,335.92 112,336.75C112,337.42 111.83,338.25 111.5,339.25C111,340.92 110.42,341.75 109.75,341.75C109.42,341.75 108.83,341.17 108,340C107.17,338.83 106.25,338.25 105.25,338.25C103.08,338.25 101.08,343.25 99.25,353.25C98.08,360.58 96.67,364.25 95,364.25Z" style="fill:rgb(0,139,150);"/>
                    </g>
                    <path id="path4" d="M179.889,365.499L179.639,365.249C179.639,364.919 180.389,364.249 181.889,363.249L200.639,352.249C208.139,347.579 213.809,343.329 217.639,339.499C212.639,336.999 210.139,334.329 210.139,331.499C210.139,327.999 211.719,324.919 214.889,322.249C217.219,320.079 219.309,318.999 221.139,318.999C223.809,318.999 225.139,320.919 225.139,324.749C225.139,327.579 224.559,330.749 223.389,334.249C225.889,335.579 227.469,336.749 228.139,337.749C228.139,339.079 227.059,341.329 224.889,344.499C224.219,343.669 222.719,342.499 220.389,340.999C217.559,344.829 214.059,348.249 209.889,351.249C205.059,354.749 200.639,357.419 196.639,359.249C195.809,359.749 192.309,361.169 186.139,363.499C185.139,363.829 183.969,364.249 182.639,364.749C181.309,365.249 180.389,365.499 179.889,365.499ZM220.639,332.749L220.889,329.749C220.889,326.919 220.059,325.499 218.389,325.499C217.889,325.499 217.139,325.789 216.139,326.379C215.139,326.959 214.639,327.499 214.639,327.999C214.639,329.169 216.639,330.749 220.639,332.749Z" style="fill:rgb(48,113,207);"/>
                    <g id="path35" transform="matrix(1,0,0,1,110.139,43.9995)">
                        <path d="M105.75,157.25C104.08,157.25 102.58,156.33 101.25,154.5C99.92,152.67 99.25,150.08 99.25,146.75L99.25,139.25C99.25,138.75 98.83,138.33 98,138C97.17,137.67 96.75,137.08 96.75,136.25C96.75,134.42 97.42,132.75 98.75,131.25C100.08,129.75 101.17,129 102,129C102.83,129.17 103.25,130.83 103.25,134C103.25,135.83 103.13,137.33 102.88,138.5C102.63,139.67 102.5,140.67 102.5,141.5C102.5,143.17 102.88,144.92 103.63,146.75C104.38,148.58 105.42,149.5 106.75,149.5C108.42,149.5 110,148.75 111.5,147.25C113,145.75 113.75,144 113.75,142C113.75,140.83 113.38,138.79 112.63,135.88C111.88,132.96 111.5,131.25 111.5,130.75C111.5,130.08 111.83,129.08 112.5,127.75C113.17,126.42 113.58,125.75 113.75,125.75C114.42,125.75 115.21,127.63 116.13,131.38C117.04,135.13 117.5,137.92 117.5,139.75C117.5,144.92 119.5,147.5 123.5,147.5C125.17,147.5 126.25,146.67 126.75,145C123.25,138.83 121.5,134.17 121.5,131C121.5,129.17 121.88,127.63 122.63,126.38C123.38,125.13 123.92,124.5 124.25,124.5C124.42,124.5 124.58,125.25 124.75,126.75C124.92,128.25 125.17,129.58 125.5,130.75C125.67,130.75 126.5,132.83 128,137C129.17,139.5 129.75,141.42 129.75,142.75C129.75,145.25 129.17,147.75 128,150.25C126.67,153.58 124.83,155.25 122.5,155.25C119,155.25 116.5,152.83 115,148C113.33,154.17 110.25,157.25 105.75,157.25Z" style="fill:rgb(97,187,0);"/>
                    </g>
                    <path id="path5" d="M271.389,308.249L271.139,307.999C271.139,307.669 271.969,306.919 273.639,305.749L295.639,292.749C304.309,287.419 310.809,282.499 315.139,277.999C309.469,274.999 306.639,271.829 306.639,268.499C306.639,264.669 308.469,261.079 312.139,257.749C314.969,255.249 317.389,253.999 319.389,253.999C322.559,253.999 324.139,256.249 324.139,260.749C324.139,263.919 323.469,267.579 322.139,271.749C324.969,273.419 326.809,274.829 327.639,275.999C327.639,277.669 326.309,280.329 323.639,283.999C322.969,282.669 321.219,281.249 318.389,279.749C315.219,284.079 311.139,288.079 306.139,291.749C300.639,295.919 295.469,298.999 290.639,300.999C289.809,301.499 284.469,303.579 274.639,307.249L273.639,307.749C272.639,308.079 271.889,308.249 271.389,308.249ZM318.639,269.999C318.969,268.669 319.139,267.329 319.139,265.999L319.139,264.749C318.639,262.749 317.719,261.749 316.389,261.749C315.719,261.749 314.809,262.079 313.639,262.749C312.469,263.419 311.889,263.999 311.889,264.499C311.889,265.999 314.139,267.829 318.639,269.999Z" style="fill:rgb(213,0,25);"/>
                    <g id="path37" transform="matrix(1,0,0,1,110.139,43.9995)">
                        <path d="M188,372C188.67,369.33 189.67,366.5 191,363.5C194,362.17 207.08,357.58 230.25,349.75L231.75,349.25C231.92,349.25 232,349.42 232,349.75L231.75,350.75C230.58,353.58 229.67,355.25 229,355.75C217.17,359.92 203.5,365.33 188,372Z" style="fill:rgb(48,113,207);"/>
                    </g>
                    <path id="path6" d="M385.389,290.749L385.139,290.499C385.139,289.829 389.559,286.999 398.389,281.999C402.059,279.669 405.809,277.419 409.639,275.249C418.309,269.919 424.809,264.999 429.139,260.499C423.469,257.499 420.639,254.329 420.639,250.999C420.639,247.169 422.469,243.579 426.139,240.249C428.969,237.749 431.389,236.499 433.389,236.499C436.559,236.499 438.139,238.749 438.139,243.249C438.139,246.419 437.469,250.079 436.139,254.249C438.969,255.919 440.809,257.329 441.639,258.499C441.639,259.999 440.309,262.669 437.639,266.499C436.969,265.169 435.219,263.749 432.389,262.249C429.219,266.579 425.139,270.579 420.139,274.249C414.639,278.419 409.469,281.499 404.639,283.499C403.809,283.999 398.469,286.079 388.639,289.749C388.139,289.919 387.599,290.129 387.019,290.379C386.429,290.629 385.889,290.749 385.389,290.749ZM432.639,252.499C432.969,251.169 433.139,249.829 433.139,248.499L433.139,247.249C432.639,245.079 431.719,243.999 430.389,243.999C429.719,243.999 428.809,244.329 427.639,244.999C426.469,245.669 425.889,246.329 425.889,246.999C425.889,248.499 428.139,250.329 432.639,252.499Z" style="fill:rgb(97,187,0);"/>
                    <g id="path39" transform="matrix(1,0,0,1,110.139,43.9995)">
                        <path d="M335.75,394C336.42,391.33 337.42,388.5 338.75,385.5C346.75,382.67 354.92,379.67 363.25,376.5L394.75,365.25C395.08,365.25 395.25,365.42 395.25,365.75L395,366.75C393.83,369.58 392.92,371.25 392.25,371.75C376.08,377.58 357.25,385 335.75,394Z" style="fill:rgb(48,113,207);"/>
                    </g>
                    <g id="path40" transform="matrix(1,0,0,1,110.139,43.9995)">
                        <path d="M287.5,39L287.25,39C287.08,39 287,38.83 287,38.5C287,38 287.13,37.29 287.38,36.38C287.63,35.46 288,33.75 288.5,31.25L288.5,29.75C288.5,21.58 284.67,14.08 277,7.25C276.67,7.08 276.5,6.83 276.5,6.5C276.5,6.33 276.96,5.5 277.88,4C278.79,2.5 279.33,1.75 279.5,1.75L280,2C287.5,7.5 291.25,15.25 291.25,25.25C291.25,29.42 290.5,33.25 289,36.75C288.33,38.08 287.83,38.83 287.5,39Z" style="fill:rgb(48,113,207);"/>
                    </g>
                    <g id="path41" transform="matrix(1,0,0,1,110.139,43.9995)">
                        <path d="M85,127.25C85.67,124.58 86.75,121.75 88.25,118.75C114.58,109.25 128.17,104.5 129,104.5L129.25,104.75C129.25,105.08 129.08,105.5 128.75,106C127.75,108.83 126.92,110.5 126.25,111C114.42,115.17 100.67,120.58 85,127.25Z" style="fill:rgb(153,63,177);"/>
                    </g>
                    <g id="path42" transform="matrix(1,0,0,1,110.139,43.9995)">
                        <path d="M188.5,137.75C189.5,135.25 190.92,132.58 192.75,129.75L235,121.25C235.33,121.25 235.5,121.33 235.5,121.5C235.5,121.83 235.33,122.25 235,122.75C233.5,125.25 232.33,126.75 231.5,127.25C219.17,129.75 204.83,133.25 188.5,137.75Z" style="fill:rgb(213,0,25);"/>
                    </g>
                    <g id="path43" transform="matrix(1,0,0,1,110.139,43.9995)">
                        <path d="M210.25,166.5C208.58,166.5 207.08,165.58 205.75,163.75C204.42,161.92 203.75,159.33 203.75,156L203.75,148.5C203.75,148 203.33,147.63 202.5,147.38C201.67,147.13 201.25,146.5 201.25,145.5C201.25,143.67 201.92,142 203.25,140.5C204.58,139 205.67,138.25 206.5,138.25C207.33,138.42 207.75,140.08 207.75,143.25C207.75,145.08 207.63,146.58 207.38,147.75C207.13,148.92 207,149.92 207,150.75C207,152.42 207.38,154.17 208.13,156C208.88,157.83 209.92,158.75 211.25,158.75C212.92,158.75 214.5,158 216,156.5C217.5,155 218.25,153.25 218.25,151.25C218.25,150.08 217.88,148.04 217.13,145.13C216.38,142.21 216,140.5 216,140C216,139.33 216.33,138.33 217,137C217.67,135.67 218.08,135 218.25,135C218.92,135 219.71,136.88 220.63,140.63C221.54,144.38 222,147.17 222,149C222,154.17 224,156.75 228,156.75C229.67,156.75 230.75,155.92 231.25,154.25C227.75,148.08 226,143.42 226,140.25C226,138.42 226.38,136.88 227.13,135.63C227.88,134.38 228.42,133.75 228.75,133.75C228.92,133.75 229.08,134.5 229.25,136C229.42,137.5 229.67,138.83 230,140C230.17,140 231,142.08 232.5,146.25C233.67,148.75 234.25,150.67 234.25,152C234.25,154.5 233.67,157 232.5,159.5C231.17,162.83 229.33,164.5 227,164.5C223.5,164.5 221,162.08 219.5,157.25C217.83,163.42 214.75,166.5 210.25,166.5Z" style="fill:rgb(0,139,150);"/>
                    </g>
                    <g id="path44" transform="matrix(1,0,0,1,110.139,43.9995)">
                        <path d="M297,290.25C297.67,287.58 298.67,284.75 300,281.75L341,267.5L341.25,267.75C341.25,268.08 341.08,268.5 340.75,269C339.75,271.83 338.83,273.5 338,274C326.33,278.17 312.67,283.58 297,290.25Z" style="fill:rgb(1,185,72);"/>
                    </g>
                    <g id="path45" transform="matrix(1,0,0,1,110.139,43.9995)">
                        <path d="M365.25,252.75L364.75,252C365.08,250.67 365.29,249.46 365.38,248.38C365.46,247.29 367.33,245.33 371,242.5C366.67,240.83 364.5,238.83 364.5,236.5C364.5,233.67 365.58,230.92 367.75,228.25C372.42,222.75 376.42,220 379.75,220C382.08,220 383.25,221.5 383.25,224.5C383.25,226.33 382.5,228.42 381,230.75L380.75,231C380.58,231 380.33,230.83 380,230.5C379.17,228.67 378.08,227.75 376.75,227.75C375.58,227.75 374.25,228.29 372.75,229.38C371.25,230.46 370.5,231.42 370.5,232.25C370.5,233.08 371.46,234 373.38,235C375.29,236 376.75,236.5 377.75,236.5C378.75,236.5 380.58,235.75 383.25,234.25C387.58,231.25 390.25,229.75 391.25,229.75C391.42,229.75 391.5,229.92 391.5,230.25L391.25,231.75C390.58,234.42 389.83,236.08 389,236.75L366.75,251.75C366.25,251.92 365.75,252.25 365.25,252.75Z" style="fill:rgb(1,185,72);"/>
                    </g>
                    <g id="path7" transform="matrix(0.926829,0,0,0.926829,8.64432,26.9756)">
                        <path d="M126.889,369.999C121.059,369.999 118.139,368.079 118.139,364.249C118.139,360.419 119.809,357.079 123.139,354.249L131.389,348.499C135.389,345.669 138.389,342.829 140.389,339.999C134.219,338.999 131.139,336.669 131.139,332.999C131.139,330.329 131.969,327.329 133.639,323.999C133.139,322.329 132.889,320.919 132.889,319.749C132.889,317.919 133.429,316.499 134.519,315.499C135.599,314.499 136.969,313.999 138.639,313.999C140.309,313.999 142.139,314.499 144.139,315.499C151.469,319.499 156.309,324.329 158.639,329.999C158.969,330.499 159.139,330.999 159.139,331.499C159.139,333.669 158.469,335.999 157.139,338.499C155.809,340.999 154.639,342.249 153.639,342.249C153.639,342.079 150.719,341.579 144.889,340.749L143.389,340.499C140.719,345.499 137.809,349.249 134.639,351.749C132.139,353.919 128.309,356.249 123.139,358.749C121.809,359.579 121.139,360.249 121.139,360.749C121.139,362.249 123.809,362.999 129.139,362.999C131.469,362.999 133.969,362.829 136.639,362.499C139.309,362.169 145.719,360.749 155.889,358.249L157.889,358.249C157.889,358.419 155.969,359.829 152.139,362.499C150.469,363.669 147.389,365.079 142.889,366.749C136.889,368.919 131.559,369.999 126.889,369.999ZM155.139,335.499L155.139,334.999L154.889,333.749C153.219,330.419 150.469,327.919 146.639,326.249C146.639,329.749 146.389,332.419 145.889,334.249C146.389,334.419 148.969,334.829 153.639,335.499L155.139,335.499ZM142.639,333.749L142.889,331.499C142.889,330.329 142.719,329.169 142.389,327.999C141.889,325.829 140.969,324.749 139.639,324.749C138.969,324.749 137.929,325.459 136.519,326.879C135.099,328.289 134.389,329.329 134.389,329.999C134.389,331.829 137.139,333.079 142.639,333.749Z" style="fill:rgb(153,63,177);"/>
                    </g>
                    <g id="path48" transform="matrix(1,0,0,1,110.139,43.9995)">
                        <path d="M277.25,273.5C277.92,271 278.92,268.25 280.25,265.25C288.08,262.25 296.17,259.25 304.5,256.25L336.5,244.75L336.75,245.25L336.5,246.5C335.33,249.17 334.42,250.83 333.75,251.5C317.58,257.17 298.75,264.5 277.25,273.5Z" style="fill:rgb(105,59,158);"/>
                    </g>
                    <g id="path49" transform="matrix(1,0,0,1,110.139,43.9995)">
                        <path d="M362.75,271.5C363.42,268.83 364.5,266 366,263C366.17,262.83 366.42,262.75 366.75,262.75C378.58,258.42 391.33,253.92 405,249.25L406.75,248.75L407,249C407,249.33 406.83,249.75 406.5,250.25C405.5,253.08 404.67,254.75 404,255.25C392.17,259.42 378.42,264.83 362.75,271.5Z" style="fill:rgb(213,0,25);"/>
                    </g>
                    <g id="path50" transform="matrix(1,0,0,1,110.139,43.9995)">
                        <path d="M383.5,134.5C383.33,134.5 383.25,134.25 383.25,133.75C383.25,133.08 383.75,130.58 384.75,126.25L385,122.5C385,112.17 380.17,102.67 370.5,94C370.17,93.67 370,93.33 370,93C370,92.67 370.92,90.75 372.75,87.25L373.25,86.75L374,87.25C383.67,94.42 388.5,104.25 388.5,116.75C388.5,122.25 387.5,127.25 385.5,131.75C384.5,133.58 383.83,134.5 383.5,134.5Z" style="fill:rgb(105,59,158);"/>
                    </g>
                    <g id="path51" transform="matrix(1,0,0,1,110.139,43.9995)">
                        <path d="M358,158C358.67,155.33 359.67,152.5 361,149.5C373.17,145 386.25,140.42 400.25,135.75L401.75,135.25C402.08,135.25 402.25,135.33 402.25,135.5C402.25,135.83 402.08,136.25 401.75,136.75C400.75,139.58 399.92,141.25 399.25,141.75C387.42,145.92 373.67,151.33 358,158Z" style="fill:rgb(97,187,0);"/>
                    </g>
                    <g id="path52" transform="matrix(1,0,0,1,110.139,43.9995)">
                        <path d="M428,390C428.5,387.33 429.5,384.5 431,381.5C457.5,372 471,367.25 471.5,367.25C471.83,367.25 472,367.33 472,367.5C472,367.83 471.83,368.25 471.5,368.75C470.5,371.42 469.67,373 469,373.5C457.17,377.67 443.5,383.17 428,390Z" style="fill:rgb(1,185,72);"/>
                    </g>
                    <g id="path53" transform="matrix(1,0,0,1,110.139,43.9995)">
                        <path d="M412.25,355.25L411.75,354.75C412.08,353.42 412.33,352.17 412.5,351C412.67,349.83 414.5,347.83 418,345C413.67,343.33 411.5,341.33 411.5,339C411.5,336.17 412.58,333.42 414.75,330.75C419.42,325.25 423.42,322.5 426.75,322.5C429.08,322.5 430.25,324 430.25,327C430.25,328.83 429.5,330.92 428,333.25L427.75,333.5C427.58,333.5 427.42,333.33 427.25,333C426.25,331.33 425.08,330.5 423.75,330.5C422.58,330.5 421.25,331 419.75,332C418.25,333 417.5,333.92 417.5,334.75C417.5,335.58 418.46,336.5 420.38,337.5C422.29,338.5 423.75,339 424.75,339C425.75,339 427.58,338.25 430.25,336.75C434.58,333.75 437.25,332.25 438.25,332.25C438.42,332.25 438.5,332.42 438.5,332.75L438.25,334.25C437.58,336.92 436.83,338.58 436,339.25L413.75,354.25C413.25,354.42 412.75,354.75 412.25,355.25Z" style="fill:rgb(0,139,150);"/>
                    </g>
                    <g id="path54" transform="matrix(1,0,0,1,110.139,43.9995)">
                        <path d="M42.75,146.5C38.75,146.33 36.75,143 36.75,136.5C36.75,128.17 39.17,119.5 44,110.5C45.17,108.33 45.83,107.25 46,107.25L45.25,110.25L45.25,111C42.08,120.5 40.5,127.08 40.5,130.75C40.5,135.92 41.92,138.5 44.75,138.5C46.25,138.5 48,136.5 50,132.5C50.17,132.33 50.29,132.17 50.38,132C50.46,131.83 50.54,131.71 50.63,131.63C50.71,131.54 50.83,131.5 51,131.5L51,132.75C49.33,141.92 46.58,146.5 42.75,146.5Z" style="fill:rgb(97,187,0);"/>
                    </g>
                    <g id="path55" transform="matrix(1,0,0,1,110.139,43.9995)">
                        <path d="M239,117.75C228.17,117.75 220.58,112.58 216.25,102.25C213.92,96.42 212.75,89.58 212.75,81.75C212.75,71.25 214,61.58 216.5,52.75C217.17,50.42 217.5,48.83 217.5,48C217.5,47.5 217.33,47.25 217,47.25C216.67,47.25 215.67,48.5 214,51C211.67,54.67 209.17,62.33 206.5,74C203,88.83 200.75,97.75 199.75,100.75C198.25,105.08 196.38,108.42 194.13,110.75C191.88,113.08 189.92,114.25 188.25,114.25C181.25,114.25 175.92,109.92 172.25,101.25C169.25,93.92 167.75,85.08 167.75,74.75C167.75,67.58 168.83,59.75 171,51.25C172,47.75 172.75,46 173.25,46C173.75,46 174,46.75 174,48.25C174,49.08 173.83,50.25 173.5,51.75C172.17,58.25 171.5,64.17 171.5,69.5C171.5,90.33 175.92,100.75 184.75,100.75C188.58,100.75 191.67,97.92 194,92.25C195.5,88.92 197.42,82.25 199.75,72.25C202.25,61.42 204.42,53.42 206.25,48.25C208.25,42.42 210.83,37.13 214,32.38C217.17,27.63 219.92,25.25 222.25,25.25C224.25,25.25 225.25,27.42 225.25,31.75C225.25,35.08 224.29,42.04 222.38,52.63C220.46,63.21 219.5,70.33 219.5,74C219.5,82 221.13,88.21 224.38,92.63C227.63,97.04 232.17,99.25 238,99.25C248.5,99.25 256.42,95.92 261.75,89.25C266.08,83.92 268.25,77.42 268.25,69.75C268.25,56.92 266.42,45.08 262.75,34.25C261.75,30.75 261.17,29 261,29C261,24.67 262.42,18.83 265.25,11.5C265.75,10 266.17,9.25 266.5,9.25C267,9.25 267.75,10.33 268.75,12.5C272.75,20.67 275.83,33.17 278,50C280.17,66 283.29,77.38 287.38,84.13C291.46,90.88 297.58,94.25 305.75,94.25C312.75,94.25 317.33,91.75 319.5,86.75C319.5,85.08 318,81.42 315,75.75C311.33,68.58 308.75,62.67 307.25,58C304.08,48.5 301.92,39.58 300.75,31.25C300.25,26.25 299.17,22.58 297.5,20.25C300.17,10.92 302.08,6.25 303.25,6.25C303.58,6.25 304.33,6.92 305.5,8.25C315,21.75 319.75,29.42 319.75,31.25C319.75,32.08 319.42,32.5 318.75,32.5C317.58,32.5 315.42,31.42 312.25,29.25C311.92,29.25 311.67,29.5 311.5,30C312.67,34 314.42,39.5 316.75,46.5C322.42,62.33 325.25,73.83 325.25,81C325.25,88.17 324.17,94.42 322,99.75C318.33,108.92 312.08,113.5 303.25,113.5C293.92,113.5 286.5,109.42 281,101.25C277.83,96.42 275,89.17 272.5,79.5C271.33,89.33 268.17,97.75 263,104.75C256.83,113.42 248.83,117.75 239,117.75Z" style="fill:rgb(97,187,0);"/>
                    </g>
                    <g id="path56" transform="matrix(1,0,0,1,110.139,43.9995)">
                        <path d="M243.25,201.25C242.92,201.25 242.75,200.58 242.75,199.25L243,193.75C243.67,188.75 244,182.92 244,176.25C244,170.42 242.5,146.08 239.5,103.25C236.5,60.42 235,36.5 235,31.5C235,25.5 234.08,20.58 232.25,16.75C232.25,14.58 233.92,9.5 237.25,1.5C237.75,0.5 238.08,0 238.25,0C238.58,0 239.08,0.5 239.75,1.5L246.5,18.75C251.33,31.92 253.75,39.33 253.75,41C253.75,41.83 253.5,42.25 253,42.25C251.83,42.25 249.5,40.17 246,36C245.83,35.67 245.67,35.5 245.5,35.5C245.33,35.5 245.25,36 245.25,37C245.25,37.67 246.58,56.67 249.25,94C251.92,131.33 253.25,152.42 253.25,157.25C253.25,174.08 250.33,188.33 244.5,200C243.83,200.83 243.42,201.25 243.25,201.25Z" style="fill:rgb(97,187,0);"/>
                    </g>
                    <path id="path8" d="M341.639,333.749C333.639,333.579 329.639,328.499 329.639,318.499C329.639,302.999 336.639,286.249 350.639,268.249C345.309,261.419 336.809,252.419 325.139,241.249C310.969,227.749 299.969,216.419 292.139,207.249C275.309,188.249 259.559,166.169 244.889,140.999C243.389,138.499 241.719,136.829 239.889,135.999C238.889,135.329 238.389,134.419 238.389,133.249L238.389,120.749C238.389,118.249 238.809,116.999 239.639,116.999C240.309,116.999 241.389,117.669 242.889,118.999L269.139,140.999C271.809,143.329 273.139,144.999 273.139,145.999C273.139,146.669 272.559,146.999 271.389,146.999C269.389,146.999 265.969,146.079 261.139,144.249C266.309,155.249 280.219,173.499 302.889,198.999C310.389,207.829 320.969,218.669 334.639,231.499C345.809,242.169 353.969,250.829 359.139,257.499C366.969,249.169 386.559,226.329 417.889,188.999C453.389,146.499 477.139,117.079 489.139,100.749C491.469,97.419 492.969,95.749 493.639,95.749C493.969,95.919 494.139,96.169 494.139,96.499C494.139,97.999 492.809,102.419 490.139,109.749C477.969,130.249 436.059,182.249 364.389,265.749C369.719,274.079 372.969,280.919 374.139,286.249C374.639,288.079 374.889,292.169 374.889,298.499C374.889,300.829 374.269,304.079 373.019,308.249C371.769,312.419 370.559,315.419 369.389,317.249C367.389,320.579 363.809,323.919 358.639,327.249C352.469,331.579 346.809,333.749 341.639,333.749ZM342.889,314.999C347.559,314.999 353.349,312.959 360.269,308.879C367.179,304.789 370.639,301.919 370.639,300.249C370.639,298.249 369.059,294.999 365.889,290.499C362.719,285.999 359.559,281.419 356.389,276.749C342.559,291.749 335.639,302.669 335.639,309.499C335.639,313.169 338.059,314.999 342.889,314.999Z" style="fill:rgb(153,63,177);"/>
                    <g id="path58" transform="matrix(1,0,0,1,110.139,43.9995)">
                        <path d="M347.25,263.5C346.92,263.5 346.75,262.75 346.75,261.25L347,256C347.67,251 348,245.17 348,238.5C348,232.67 345.92,200.42 341.75,141.75C337.58,83.08 335.5,51.17 335.5,46C335.5,40 334.58,35.08 332.75,31.25C332.75,28.75 334.42,23.67 337.75,16C338.25,15 338.67,14.5 339,14.5C339.5,14.5 339.92,15 340.25,16L346.25,31.25L347,33.25C352,46.25 354.5,53.67 354.5,55.5C354.5,56.33 354.25,56.75 353.75,56.75C352.58,56.75 350.17,54.75 346.5,50.75C346.33,50.42 346.17,50.25 346,50.25C345.83,50.25 345.75,50.75 345.75,51.75C345.75,52.08 347.67,78.96 351.5,132.38C355.33,185.79 357.25,214.83 357.25,219.5C357.25,234.17 355.08,246.83 350.75,257.5L350.5,257.75C349,261.58 347.92,263.5 347.25,263.5Z" style="fill:rgb(153,63,177);"/>
                    </g>
                    <g id="path59" transform="matrix(1,0,0,1,110.139,43.9995)">
                        <path d="M449.5,336.75C449,336.58 448.75,335.67 448.75,334C448.75,332.83 448.92,331.17 449.25,329C449.75,324 450,318.25 450,311.75C450,305.92 447.92,273.63 443.75,214.88C439.58,156.13 437.5,124.17 437.5,119C437.5,113 436.58,108.08 434.75,104.25C434.75,101.92 436.5,96.83 440,89C440.33,88 440.75,87.5 441.25,87.5C441.58,87.5 442,88 442.5,89L449.25,106.5C454.08,119.5 456.5,126.83 456.5,128.5C456.5,129.33 456.25,129.75 455.75,129.75C454.58,129.75 452.17,127.75 448.5,123.75L448,123.25C447.83,123.25 447.75,123.83 447.75,125C447.75,127.5 449.67,154.42 453.5,205.75C457.33,258.92 459.25,287.83 459.25,292.5C459.25,307.17 457.08,319.83 452.75,330.5C451.42,333.5 450.58,335.29 450.25,335.88C449.92,336.46 449.67,336.75 449.5,336.75Z" style="fill:rgb(213,0,25);"/>
                    </g>
                    <g id="path60" transform="matrix(1,0,0,1,110.139,43.9995)">
                        <path d="M417.25,371.75C415.42,371.75 414.5,371.58 414.5,371.25C414.5,370.58 415.33,369.75 417,368.75C425.17,364.08 438.58,356.08 457.25,344.75C463.08,340.92 469,335.75 475,329.25C483,320.58 487,313.33 487,307.5C487,295.33 484.92,271.83 480.75,237C476.58,202.17 474.5,182.5 474.5,178C474.5,175.5 473.92,172.58 472.75,169.25C471.58,165.92 471,164.08 471,163.75C471,163.08 471.58,160.67 472.75,156.5C474.42,150.5 475.58,147.5 476.25,147.5C476.92,147.5 480.08,153.5 485.75,165.5C491.42,177.5 494.25,184.75 494.25,187.25C494.25,187.92 494,188.25 493.5,188.25C492.33,188.25 489.92,186.25 486.25,182.25L485.75,182C485.58,182 485.5,182.5 485.5,183.5C485.5,188.33 487.17,204.67 490.5,232.5C493.83,260.33 495.5,279.17 495.5,289C495.5,309.33 490.75,326.08 481.25,339.25C473.75,349.75 465.33,357.17 456,361.5C452.33,363.17 446,365.17 437,367.5C428,369.83 421.42,371.25 417.25,371.75Z" style="fill:rgb(106,58,158);"/>
                    </g>
                    <g id="path61" transform="matrix(1,0,0,1,110.139,43.9995)">
                        <path d="M475,325.25C474.5,325.25 473.5,320.67 472,311.5C469.83,296.33 458.67,279.08 438.5,259.75L412.5,235C403,225.67 395.75,218.08 390.75,212.25C387.25,208.08 383.67,202.92 380,196.75L373.5,185.75C372,183.58 370.33,181.92 368.5,180.75C367.5,180.25 367,179.33 367,178L367,165.5C367,163 367.42,161.75 368.25,161.75C368.92,161.75 370,162.42 371.5,163.75L395,181.5C396.83,183 397.75,184.08 397.75,184.75C397.75,185.25 397.08,185.5 395.75,185.5C393.75,185.5 390.42,185 385.75,184C388.92,189.67 397.75,199.83 412.25,214.5L445,247C466.83,269.33 477.75,288.42 477.75,304.25L477.75,308.5C476.42,319.67 475.5,325.25 475,325.25Z" style="fill:rgb(105,59,158);"/>
                    </g>
                    <g id="path95" serif:id="path9" transform="matrix(1,0,0,1,98.139,-86.0005)">
                        <path d="M24,356.85C24,356.61 24.48,355.96 25.43,354.88C30.44,349.52 32.94,345.94 32.94,344.15C32.82,342.37 31.99,341.47 30.44,341.47C29.6,341.47 28.89,341.68 28.29,342.1C27.7,342.52 27.34,342.72 27.22,342.72L26.86,342.55L27.04,341.29C27.87,337.6 29.72,335.75 32.58,335.75C35.09,335.75 36.34,337.24 36.34,340.22C36.34,342.49 35.38,345.08 33.48,348C31.57,350.92 29.13,353.45 26.15,355.6C24.95,356.43 24.24,356.85 24,356.85Z" style="fill:rgb(255,161,0);"/>
                    </g>
                    <g id="path96" serif:id="path9" transform="matrix(0.813253,-0.581911,0.581911,0.813253,36.2574,-64.7736)">
                        <path d="M24,356.85C24,356.61 24.48,355.96 25.43,354.88C30.44,349.52 32.94,345.94 32.94,344.15C32.82,342.37 31.99,341.47 30.44,341.47C29.6,341.47 28.89,341.68 28.29,342.1C27.7,342.52 27.34,342.72 27.22,342.72L26.86,342.55L27.04,341.29C27.87,337.6 29.72,335.75 32.58,335.75C35.09,335.75 36.34,337.24 36.34,340.22C36.34,342.49 35.38,345.08 33.48,348C31.57,350.92 29.13,353.45 26.15,355.6C24.95,356.43 24.24,356.85 24,356.85Z" style="fill:rgb(0,139,150);"/>
                    </g>
                    <g id="path97" serif:id="path9" transform="matrix(0.991707,0.128516,-0.128516,0.991707,281.894,-275.006)">
                        <path d="M24,356.85C24,356.61 24.48,355.96 25.43,354.88C30.44,349.52 32.94,345.94 32.94,344.15C32.82,342.37 31.99,341.47 30.44,341.47C29.6,341.47 28.89,341.68 28.29,342.1C27.7,342.52 27.34,342.72 27.22,342.72L26.86,342.55L27.04,341.29C27.87,337.6 29.72,335.75 32.58,335.75C35.09,335.75 36.34,337.24 36.34,340.22C36.34,342.49 35.38,345.08 33.48,348C31.57,350.92 29.13,353.45 26.15,355.6C24.95,356.43 24.24,356.85 24,356.85Z" style="fill:rgb(1,185,72);"/>
                    </g>
                    <g id="path98" serif:id="path9" transform="matrix(1,0,0,1,110.139,43.9995)">
                        <path d="M24,356.85C24,356.61 24.48,355.96 25.43,354.88C30.44,349.52 32.94,345.94 32.94,344.15C32.82,342.37 31.99,341.47 30.44,341.47C29.6,341.47 28.89,341.68 28.29,342.1C27.7,342.52 27.34,342.72 27.22,342.72L26.86,342.55L27.04,341.29C27.87,337.6 29.72,335.75 32.58,335.75C35.09,335.75 36.34,337.24 36.34,340.22C36.34,342.49 35.38,345.08 33.48,348C31.57,350.92 29.13,353.45 26.15,355.6C24.95,356.43 24.24,356.85 24,356.85Z" style="fill:rgb(213,0,25);"/>
                    </g>
                    <g id="path99" serif:id="path9" transform="matrix(1,0,0,1,445.139,-183.001)">
                        <path d="M24,356.85C24,356.61 24.48,355.96 25.43,354.88C30.44,349.52 32.94,345.94 32.94,344.15C32.82,342.37 31.99,341.47 30.44,341.47C29.6,341.47 28.89,341.68 28.29,342.1C27.7,342.52 27.34,342.72 27.22,342.72L26.86,342.55L27.04,341.29C27.87,337.6 29.72,335.75 32.58,335.75C35.09,335.75 36.34,337.24 36.34,340.22C36.34,342.49 35.38,345.08 33.48,348C31.57,350.92 29.13,353.45 26.15,355.6C24.95,356.43 24.24,356.85 24,356.85Z" style="fill:rgb(1,185,72);"/>
                    </g>
                </g>
            </g>
        </g>
    </g>
</svg>
