<?xml version="1.0" encoding="utf-8"?>
<!-- Generator: Adobe Illustrator 25.2.0, SVG Export Plug-In . SVG Version: 6.00 Build 0)  -->
<svg version="1.1" id="Layer_1" xmlns="http://www.w3.org/2000/svg" xmlns:xlink="http://www.w3.org/1999/xlink" x="0px" y="0px"
	 width="519px" height="303.4px" viewBox="0 0 519 303.4" style="enable-background:new 0 0 519 303.4;" xml:space="preserve">
<style type="text/css">
	.st0{fill:#0C697B;}
	.st1{fill:#EB9F16;}
	.st2{fill:#EC5B1A;}
</style>
<text transform="matrix(1 0 0 1 709.4267 1065.4138)"><tspan x="0" y="0" style="font-family:'AdobeArabic-Regular'; font-size:12px;">ليمحت</tspan><tspan x="20.4" y="0" style="font-family:'MyriadPro-Regular'; font-size:12px;"> Mp3 </tspan><tspan x="48.2" y="0" style="font-family:'AdobeArabic-Regular'; font-size:12px;">عمتسإ</tspan></text>
<g>
	<g id="XMLID_1_">
		<path class="st0" d="M490.2,157.1c3.5,4.4,5.2,9.1,5.2,14.1c0,10.5-2.9,17.5-8.6,21c-1.7,0.3-4.1,0.6-7.2,0.9
			c-4.9-0.3-9.1-2.5-12.6-6.7c-1.4-2.2-2.1-4.2-2.1-6c-2.9,8.4-7.3,12.6-13.5,12.6s-10.1-2.4-12-7.2c-0.3-1.1-0.5-2.3-0.5-3.6
			c0-1.3,0.2-2.3,0.5-3.1c-0.3,0.5-1.2,1.6-2.6,3.3c-6.8,10.3-13.3,15.5-19.5,15.5c-2.1,0-4.1-0.4-6.2-1.2
			c-3.7-1.8-6.3-5.6-7.9-11.4s-3.1-9-4.5-9.3c-0.3-0.3-0.7-0.5-1.2-0.5H397c-2.5,0-6.1,3.7-10.7,11.2c-5.4,8.6-11.2,14.3-17.4,17.2
			c10.2,0.6,23,1.6,38.4,2.9c15.4,1.3,28.7,2.5,39.8,3.6l-5.5,13.1c-5.7-0.8-10.6-1.4-14.5-1.7c-11.8,0-25.9,4.2-42.5,12.5
			c-16.6,8.4-28.3,13.4-35.2,15.1c-6.8,1.8-15.4,2.7-25.7,3c-10.3,0.2-19.3-1-27.1-3.6s-12.8-4.9-15.4-6.8
			c-2.6-1.9-5.2-5.6-7.9-11.2c-0.7-1.5-1.5-4.4-2.2-8.5c3.2-1.2,6.2-2.5,9.2-3.8c2.5,6.9,5.5,11.2,8.8,12.9c5,2.6,10.9,4.7,17.8,6.2
			c6.8,1.5,13.5,2.1,20.1,1.8c6.6-0.3,11.8-0.8,15.6-1.5c3.8-0.7,15.1-4.5,33.8-11.3c7.9-4,13.2-6.5,15.7-7.6
			c-2.9-0.3-10.2-1-22-2.1c-11.8-1.1-20.5-1.7-25.9-1.7h-4.3c-2.6,0.5-4.2,0.9-5,1.2l3.8-10.7l1.7-3.8l1.7-1.2
			c18.9-2.5,33.1-9.8,42.4-21.9c1.1-1.1,3.2-3.9,6.2-8.3c3-4.4,4.8-7.1,5.4-7.9c0.5-0.8,1.2-1.2,1.9-1.2c0.7,0,1.6,0.2,2.7,0.7
			c1.7,0.6,3.7,3.8,6,9.4c2.2,5.6,4.3,9.2,6.2,10.6c2.5,1.1,5.1,1.7,7.6,1.7c6.5,0,12.3-3.8,17.4-11.4c3.2-4.3,5.3-6.4,6.4-6.4h0.5
			c-0.6,0.9-1.2,2.2-1.7,3.8v1.4c0.5,5.9,3.2,9,8.1,9.3c4.8,0,8.6-2,11.4-6c1.4-1.7,2.4-4.1,3-7c0.6-2.9,1.5-5,2.7-6.1
			c-0.3,2.5-0.5,4.2-0.5,5c0.3,8.3,4.8,12.8,13.4,13.6c1.1,0.3,2.2,0.5,3.3,0.5c2.5-0.3,4.9-1,6.9-2.1c-0.6-2.5-2.2-5.2-4.8-8.1
			L490.2,157.1z"/>
		<path class="st0" d="M492.1,208.9l-2.1,5.7c-2.5-2.9-4.4-4.3-5.5-4.3c-2.2,0.9-4.2,5.8-5.9,14.5l-1-0.2c0.3-1.5,0.4-3.9,0.4-6.9
			c1.4-8.7,3.9-13.1,7.4-13.1C488.5,204.6,490.7,206,492.1,208.9z"/>
		<path class="st1" d="M480.7,134c0.3-0.3,0.5,0.4,0.5,2.1c-0.3,2.1-0.6,3.8-0.7,5.2c-1.1,1.9-2.1,3.1-3.1,3.6h-0.5
			c-3.3,0-5-2.5-5-7.6c0-3.5,1.7-9.4,5-17.6l0.9-2.6l0.5-0.7c0.3-0.5,0.5-0.5,0.7,0c0.2,0.5,0.2,1,0,1.5c-0.2,0.6-0.9,2.6-2.1,6.1
			c-1.3,3.5-1.9,6.2-1.9,8.1c0,4.3,1,6.6,2.9,6.9c1-0.3,1.8-1.3,2.6-2.9L480.7,134z"/>
		<path class="st0" d="M478.6,224.8c0,0.1,0,0.2-0.1,0.3c0,1.6-0.2,2.9-0.5,4c0,1.8-0.5,3.9-1.4,6.4c-1.8-6.2-4.8-11.6-9.1-16.2v1.7
			l-7.9-5.5c0-3.5,0.3-5.6,0.9-6.4c1-0.2,1.7-0.2,2.4-0.2c3,0,6.7,3.5,11,10.5l3.1,6.9c0.2-0.4,0.4-0.9,0.5-1.7L478.6,224.8z"/>
		<path class="st0" d="M456.9,104c3.2,2.4,4.8,5.4,4.8,9.1c0,1.9-0.5,4-1.4,6.2c-1.3-3.5-3.5-6.3-6.7-8.3l-1.7-1
			c-1.1-0.6-3.5-1.9-7-3.9c-3.6-2-5.5-3.8-5.6-5.4v-1.2c0-3.2,1.4-6.8,4.3-11c2.5-3.5,5.9-5.2,10-5.2c3.2,0.6,4.9,2.9,5,6.7v2.1
			C458.5,95.1,458,99.1,456.9,104z M454.2,103l0.5-3.6c-0.8-6-2.7-9.1-5.7-9.1c-1.6,0-3.6,1.2-6,3.6c1.1,2.1,3,3.8,5.6,5.2
			C451.3,100.6,453.1,101.9,454.2,103z"/>
		<polygon class="st1" points="455.2,243.9 446.4,256.6 431.8,245.3 440.4,233.2 		"/>
		<path class="st0" d="M451.8,109.9l1.7,1c-2.4,6.4-7.9,14.1-16.4,23.4c-8.6,9.2-20.9,16.4-36.9,21.7c12.2-6.5,23-14.4,32.4-23.6
			C442.6,123,449,115.5,451.8,109.9z"/>
		<path class="st1" d="M426.8,48.7v6.2c-42,15.6-90.2,34.3-144.7,56.3l0.2-6.2C311.5,93,342,80.9,373.9,68.5
			C391.1,62,408.7,55.3,426.8,48.7z"/>
		<path class="st1" d="M423,90.4l-3.1,7.9c-3.3-4-5.7-6-7.2-6c-3.3,1.4-6.1,8-8.3,19.7l-1.3-0.3c0.4-2.1,0.6-5.2,0.6-9.2
			c1.9-11.9,5.3-17.9,10.3-17.9C417.9,84.7,420.9,86.6,423,90.4z"/>
		<path class="st2" d="M413.5,246.3l-2.4,5.7c-2.5-2.9-4.4-4.3-5.5-4.3c-2.2,0.9-4.2,5.8-5.9,14.5l-1-0.2c0.3-1.6,0.4-3.9,0.4-6.9
			c1.4-8.9,3.9-13.3,7.4-13.3C409.6,241.8,411.9,243.3,413.5,246.3z"/>
		<path class="st1" d="M404.5,112c0,0.1,0,0.2-0.1,0.3c0,2.4-0.3,4.2-0.7,5.5c0,2.5-0.6,5.5-1.9,8.8c-2.2-8.4-6.3-15.7-12.2-21.9
			v2.4l-10.2-7.6c0-4.8,0.3-7.7,0.9-8.8c1.4-0.2,2.6-0.2,3.3-0.2c4,0,8.9,4.8,14.8,14.3l4.1,9.3c0.3-0.5,0.5-1.3,0.6-2.2L404.5,112z
			"/>
		<path class="st2" d="M399.7,262.2c0,0.1,0,0.2-0.1,0.3c0,1.6-0.2,2.9-0.5,4.1c0,1.8-0.5,3.9-1.4,6.4c-1.8-6.2-4.8-11.6-9.1-16.2
			v1.7l-7.6-5.5c0-3.5,0.3-5.6,0.9-6.4c1-0.2,1.7-0.2,2.4-0.2c2.9,0,6.4,3.5,10.7,10.5l3.1,6.9c0.2-0.4,0.4-0.9,0.5-1.7L399.7,262.2
			z"/>
		<path class="st0" d="M389.6,48.2c0.3-0.3,0.5,0.4,0.5,2.1c-0.3,2.1-0.6,3.8-0.7,5.2c-1.1,1.9-2.1,3.1-3.1,3.6h-0.5
			c-3.3,0-5-2.5-5-7.6c0-3.3,1.7-9.1,5-17.4l0.9-2.6l0.5-0.7c0.3-0.5,0.6-0.5,0.7,0c0.2,0.5,0.2,1,0,1.5c-0.2,0.6-0.9,2.6-2.1,6.1
			c-1.3,3.5-1.9,6.2-1.9,8.1c0,4.1,0.9,6.4,2.9,6.7c1-0.3,1.8-1.3,2.6-2.9L389.6,48.2z"/>
		<path class="st2" d="M376.8,136.9h0.7c0,3.5-3.5,8.7-10.5,15.7c-2.1,2.6-6.5,4.6-13.4,6.2l-10.5,2.4c3-2.4,10.6-6.4,22.6-11.9
			l0.5-1.2c0-1.9-4.6-2.9-13.8-2.9h-10v-0.7c3.5-6.4,6.3-9.5,8.6-9.5c0-0.5,1.3-0.9,3.8-1.2C366.8,133.8,374.1,134.8,376.8,136.9z"
			/>
		<path class="st0" d="M354.8,107.1c0.5-0.3,0.7,0.4,0.7,2.1c-0.5,2.1-0.8,3.8-0.9,5.2c-1.1,1.9-2.1,3.1-3.1,3.6H351
			c-3.3,0-5-2.6-5-7.6c0-3.3,1.7-9.1,5-17.4l1-2.6l0.5-0.7c0.3-0.5,0.6-0.5,0.7,0c0.2,0.5,0.2,1,0,1.5s-0.9,2.6-2.1,6.1
			s-1.9,6.2-1.9,8.1c0,4.1,1,6.4,2.9,6.7c0.9-0.3,1.8-1.3,2.6-2.9L354.8,107.1z"/>
		<path class="st2" d="M354.4,39.4l-3.1,7.9c-3.3-4-5.7-6-7.2-6c-3.2,1.4-5.8,8-8,19.7l-1.3-0.3c0.4-2.1,0.6-5.2,0.6-9.2
			c1.9-11.9,5.2-17.9,10-17.9C349.3,33.7,352.3,35.6,354.4,39.4z"/>
		<path class="st2" d="M336.1,61c0,0.1,0,0.2-0.1,0.3c0,2.4-0.2,4.2-0.7,5.5c0,2.6-0.6,5.5-1.9,8.8c-2.2-8.4-6.3-15.7-12.2-21.9v2.4
			L311,48.4c0-4.8,0.3-7.7,1-8.8c1.4-0.2,2.5-0.2,3.3-0.2c4,0,8.9,4.8,14.8,14.3l4.1,9.3c0.3-0.5,0.5-1.3,0.6-2.2L336.1,61z"/>
		<path class="st2" d="M326.2,102.1l-1,6.7c-13.8,5.4-28.2,11.1-43.1,17.2l0.2-6.2C296.7,113.8,311.3,108,326.2,102.1z"/>
		<path class="st1" d="M323.6,176.7c-0.2,2-0.5,3.9-0.8,5.7l-3.5-0.7c-1.1-3.3-4.1-9.1-9.1-17.4c-4.8-8.7-7.7-16.4-8.8-22.9
			l-2.1-2.6l5.5-14.3c7.9,9.9,13.2,16.6,15.7,20.3c1.1,1.8,1.1,2.5,0,2.1c-0.5,0-2.7-1-6.7-3.1l-2.1,0.5c1.1,2.9,2.6,5.9,4.5,9.1
			C321.1,162.7,323.6,170.5,323.6,176.7z"/>
		<path class="st1" d="M319.3,181.7l3.5,0.7c-0.8,4.4-2.2,8.2-4,11.5c-2.9,4.3-9.6,9.5-20.3,15.5c-5.6,3.3-11.7,6.5-18.2,9.4
			c-1.2-3.2-2.3-6.9-3.2-11.1c10.7-4.4,20.5-9.4,29.3-14.9C313.3,188.2,317.6,184.6,319.3,181.7z"/>
		<polygon class="st2" points="304.5,173.4 295.5,185.7 280.9,174.5 289.5,162.6 		"/>
		<path class="st0" d="M284.3,52.7c5.2,6.7,7.5,14.1,6.7,22.4c-0.5,5.9-2.1,11.4-5,16.4c-0.5,0.9-0.6,0.8-0.5-0.5
			c0.3-1.6,0.8-3.5,1.5-5.8c0.7-2.3,1.3-5.2,1.7-8.7c0.4-3.5-0.3-7.1-2-10.7c-1.7-4.1-3.6-7.1-5.5-8.8l-2.6-2.6l1.7-5.7L284.3,52.7z
			"/>
		<path class="st1" d="M277.1,207.6c1,4.3,2.1,8,3.2,11.1c-3,1.3-6,2.6-9.2,3.8c-0.5-3.2-1.1-7.2-1.6-12.1
			C272.1,209.6,274.6,208.6,277.1,207.6z"/>
		<path class="st0" d="M277.1,207.6c-2.5,1-5,2-7.5,2.9c-1.2-11.4-2.4-27.2-3.4-47.4c-2.4-32.3-5.3-57.7-8.6-76.3l6.4-12.2
			c4.1,21.4,7,46.8,8.6,76c1.4,27.2,2.9,45.9,4.3,56C277,207,277,207.3,277.1,207.6z"/>
		<path class="st2" d="M263.1,265.4c6,0,12-2.4,17.9-7.1c-2.9,4.3-6.1,7.5-9.5,9.5c-4.1,2.7-7.9,4.1-11.2,4.3h-0.5
			c-4.3,0-6.4-1.7-6.4-5c0-1,0.3-2.4,0.7-4.2l1.4,0.4C257.2,264.5,259.7,265.2,263.1,265.4z"/>
		<path class="st2" d="M270.2,239.2l-1.2,5.5c-0.2,0.3-2.1,2.7-6,7c-3.8,4.4-6.4,8.2-7.6,11.6l-1.4-0.4c0.1-0.3,0.1-0.5,0.2-0.8
			c1.3-4.8,3.3-8.7,6-11.9c-4.4-0.3-6.7-2-6.7-5c0-0.9,0.2-2,0.5-3.1l1.9-3.3c1.7-4,4-6,6.7-6c1.4,0.3,2.1,2,2.1,5
			c0,1.9-0.4,3.1-1.2,3.6c-1.1-2.2-2.4-3.3-3.8-3.3c-1.1,0-2.4,0.7-3.8,2.1c0.5,3.3,3.1,5,7.9,5h0.5L270.2,239.2z"/>
		<path class="st1" d="M269.6,210.5c0.5,4.8,1,8.8,1.6,12.1c-14.7,5.8-31.3,10.6-49.8,14.4c-25.1,5.1-51.2,6.8-78.2,5.2
			c-27-1.6-45.6-3.9-55.7-6.9c-10.1-3-17.4-5.8-21.9-8.5c-4.5-2.6-12.6-7.5-24.2-14.7c-10.8-7.6-16.4-12-16.7-13.1l-1.2-1.7V197
			c0.8,0,5.5,2.4,14.1,7.2c31.9,17.3,70.7,26,116.3,26c27.7,0,55.2-3.3,82.7-9.8C248.4,217.5,259.4,214.3,269.6,210.5z"/>
		<path class="st2" d="M249.5,65.6c0.3-0.3,0.5,0.4,0.5,2.1c-0.3,2.1-0.6,3.8-0.7,5.2c-1.1,1.9-2.1,3.2-3.1,3.8h-0.5
			c-3.5,0-5.2-2.6-5.2-7.9c0-3.3,1.7-9.1,5.2-17.4l0.9-2.6l0.5-0.7c0.3-0.5,0.6-0.5,0.7,0c0.2,0.5,0.2,1,0,1.5
			c-0.2,0.6-0.9,2.6-2.1,6.1c-1.3,3.5-1.9,6.2-1.9,8.1c0,4.1,0.9,6.4,2.9,6.7c1-0.3,1.8-1.3,2.6-2.9L249.5,65.6z"/>
		<path class="st1" d="M243.7,186.9c0,6.7-1.8,14.1-5.5,22.4c-0.8,1.9-1.4,3-1.7,3.3h-0.5c-0.8-0.3-1.2-1-1.2-2.1l0.5-9.8
			c0-17.5-4.5-54-13.4-109.4l-1.7-2.6l6.9-9.3c0.8,1.4,2.2,4,4.3,7.6c7,11.3,10.5,17.8,10.5,19.5v0.5c-1.6-0.3-4.4-2.1-8.3-5.2h-1.4
			C239.9,144.9,243.7,173.3,243.7,186.9z"/>
		<path class="st1" d="M225.6,256.8c0.3-0.3,0.5,0.3,0.5,1.9c-0.3,1.7-0.6,3.3-0.7,4.5c-0.9,1.7-1.8,2.9-2.6,3.3h-0.5
			c-3,0-4.5-2.3-4.5-6.9c0-3,1.5-8.2,4.5-15.5l0.7-2.4l0.5-0.7c0.3-0.3,0.5-0.3,0.7,0.1c0.2,0.4,0.2,0.8,0,1.3
			c-0.2,0.5-0.8,2.3-1.9,5.5s-1.7,5.6-1.7,7.2c0,3.8,0.8,5.9,2.4,6.2c1-0.3,1.8-1.2,2.4-2.6L225.6,256.8z"/>
		<path class="st0" d="M223,202.9c0.2-0.3,0.2,0.4,0.2,2.1c-0.2,2.4-0.4,4.3-0.7,5.7c-1.1,2.1-2.2,3.3-3.3,3.8h-0.5
			c-3.5,0-5.3-2.7-5.3-8.1c0-3.5,1.8-9.7,5.3-18.6l1.2-2.6l0.2-0.9c0.5-0.3,0.8-0.3,1,0.2c0.2,0.5,0.2,1,0,1.5
			c-0.2,0.6-0.9,2.7-2.3,6.4c-1.4,3.7-2,6.6-2,8.7c0,4.3,1,6.6,3.1,6.9c0.9-0.3,1.8-1.4,2.6-3.1L223,202.9z"/>
		<path class="st2" d="M212.3,171.2v1.2c0,2.2-0.3,4.6-1,7.1l-4-1.2c-0.6-2.2-3.7-8.9-9.1-20c-5.6-11.6-9.2-23.3-11-35l-1.9-2.6
			h-0.5l7.9-14.1c1.1,1.4,3.2,5,6.4,10.7c3.3,5.9,5.7,10.1,7.2,12.6c1.8,3,2.1,4.4,1,4c-0.6,0-2.1-0.8-4.3-2.4
			c-2.2-1.1-3.5-1.7-3.8-1.7c3.3,9.9,6.2,17.6,8.6,23.4C210.8,158.7,212.3,164.7,212.3,171.2z"/>
		<path class="st2" d="M211.2,179.5c-0.9,3.2-2.4,6.7-4.4,10.5c-3.7,6.5-8.9,9.8-15.7,9.8c-13.2,0-21.9-8.6-26.2-25.7l-0.5-2.9
			c-0.2,1.2-0.5,2.3-0.7,3.4l-3.1-0.5l0.5-5.5c0-14.5-2.4-27.9-7.2-40.3c0-0.8-0.2-1.7-0.5-2.6l-1.7-3.3l4.5-11l1-3.1
			c4,6.5,7.4,18.1,10.2,34.8c3.3,16.7,5.6,26.3,6.7,28.8c4.3,8.3,9.8,12.4,16.4,12.4c6.5,0,12.1-2,16.7-6L211.2,179.5z"/>
		<path class="st0" d="M200.4,69.7l-0.5,6.2c-19.2,5.3-39.7,11.2-61.4,17.5l-1.1-3.8c0.1,0,0.2-0.2,0.3-0.5c0.3-0.6,0.6-1.1,0.9-1.7
			c2.5-0.7,4.9-1.4,7.4-2.1C163.6,80.1,181.8,74.9,200.4,69.7z"/>
		<path class="st0" d="M200.1,97.8c0,3.5-1.5,5.4-4.5,5.7c-2.6-0.6-4.4-2.6-5.5-5.7l-1.2,4.1c-0.5,1.4-1.6,2.6-3.3,3.6
			c-0.6,0.3-1.6,0.5-2.9,0.5c-1.3-0.2-2.3-0.6-3-1.3c-0.7-0.7-1.2-2.7-1.4-6.1c-0.2-3.3-0.6-5.5-1.1-6.4l1.2-5
			c0.8,0.2,1.3,2.7,1.4,7.5c0.2,4.9,1.5,7.4,4.1,7.5c1.4-0.2,2.9-0.9,4.3-2.1l0.2-2.6c0-2.5-0.9-5.4-2.6-8.6l1.9-4.8
			c0.3,0.3,0.9,2.3,1.9,5.8c1,3.6,1.7,5.5,2.1,5.8c1.1,2.2,2.5,3.3,4.1,3.3c1.3,0,2.2-0.3,2.9-1c-0.3-0.9-1-2.5-2-4.5
			c-1-2.1-1.6-3.8-1.8-5.2c0.9-3.5,1.5-5.2,1.7-5.2v0.2c0,0.5,0.1,1.4,0.2,2.6c0.2,1.3,0.9,3.3,2.1,6
			C199.7,93.4,200.1,95.4,200.1,97.8z"/>
		<path class="st1" d="M167,212.2c0.2-0.3,0.2,0.4,0.2,2.1c-0.2,2.4-0.4,4.3-0.7,5.7c-1.1,2.1-2.2,3.3-3.3,3.8h-0.5
			c-3.5,0-5.2-2.7-5.2-8.1c0-3.5,1.7-9.7,5.2-18.6l1.2-2.6l0.2-1c0.5-0.3,0.8-0.2,0.9,0.3c0.2,0.5,0.2,1,0,1.7
			c-0.2,0.6-0.9,2.8-2.3,6.4c-1.4,3.7-2,6.5-2,8.6c0,4.5,1,6.8,3.1,6.9c0.9-0.2,1.8-1.2,2.6-3.1L167,212.2z"/>
		<path class="st2" d="M160.5,174.1l3.1,0.5c-1.7,7.6-3.2,12.9-4.8,15.9c-5.7,10.5-13.5,15.7-23.4,15.7c-9.9,0-16.9-4.1-21.2-12.4
			c-2.6-4.6-4.1-9.8-4.5-15.5l2.9-31.5c-0.3-1.4-0.5-2.3-0.5-2.6c-4,4-7.1,14.2-9.3,30.8c-2.5,16.5-5.2,26.8-8.1,30.7
			c-2.2,3.2-4.6,4.8-7.2,4.8c-2.6,0-4.5-0.2-6-0.5c-11-4.8-16.6-18.6-16.9-41.5v-9.3l0.5-3.1v-1.7c1.4-1.1,2.1,0.2,2.1,3.8
			c0.8,17.3,3.2,28.9,7.2,34.8c3,4,6.7,6,11,6h0.5c3.7-0.6,6.6-6,8.8-16l1.7-8.1c3.2-18.8,7.9-32.9,14.1-42.4c2.9-3.7,5-5.2,6.4-4.8
			h1.7l0.9,1.4c0.8,1.6,1,3.5,0.7,5.7c0,2.9-0.4,6.5-1.2,11c-1.4,7.5-2.1,13.9-2.1,19.3c0,5.1,0.6,9.6,1.7,13.6
			c2.9,7.5,9,11.2,18.6,11.2C146.6,190,154.4,184.7,160.5,174.1z"/>
		<path class="st2" d="M144.6,114l-1.7,4.1c-1.8-2.1-3-3.1-3.8-3.1c-1.6,0.6-2.9,4.1-4.1,10.5c0,1.1-0.2,2.1-0.5,2.9
			c0,1.3-0.3,2.8-0.9,4.5c-1.3-4.4-3.4-8.3-6.4-11.4v1.2l-5.5-3.8c0-2.5,0.2-4.1,0.7-4.5c0.6-0.2,1.2-0.2,1.7-0.2
			c2.1,0,4.6,2.5,7.6,7.4l2.1,4.8c0.5-0.8,0.7-2.8,0.7-6c1-6.2,2.7-9.3,5.3-9.3C141.9,110.9,143.5,111.9,144.6,114z"/>
		<path class="st0" d="M141.7,163.1c0.3-0.3,0.5,0.6,0.5,2.6c-0.3,2.7-0.6,4.9-1,6.7c-1.3,2.4-2.5,3.8-3.8,4.3h-0.5
			c-4.3,0-6.4-3.1-6.4-9.3c0-4.1,2.1-11.3,6.4-21.7l1.2-3.1l0.5-0.9c0.5-0.5,0.8-0.4,0.9,0.1c0.2,0.6,0.2,1.2,0,1.9
			c-0.2,0.7-1,3.2-2.6,7.5c-1.6,4.3-2.4,7.6-2.4,10c0,5.1,1.2,7.8,3.6,8.1c1.1-0.3,2.1-1.5,3.1-3.6L141.7,163.1z"/>
		<path class="st2" d="M136.5,61.8c3.7,4.8,5.2,10.1,4.8,16c-0.3,3.3-1.2,6.5-2.7,9.5c-0.3,0.1-0.6,0.2-0.9,0.3
			c0.2-0.9,0.4-1.8,0.8-2.9c0.5-1.6,0.9-3.6,1.2-6.1s-0.2-5-1.4-7.5c-1.3-2.9-2.6-4.9-3.8-6.2l-1.9-1.9l1.2-4.1L136.5,61.8z"/>
		<path class="st0" d="M137.4,89.5l1.1,3.8c-20.4,6-41.9,12.4-64.5,19.2l1.4-6.4c20.1-6.2,40.8-12.4,62.2-18.6
			c-0.1,0.4-0.1,0.8-0.2,1.2C137.3,89.3,137.3,89.5,137.4,89.5z"/>
		<path class="st1" d="M99.3,128.5l-2.1,6c-2.6-3-4.4-4.5-5.5-4.5c-2.2,0.9-4.2,5.9-5.9,14.7l-1-0.2c0.3-1.5,0.5-3.9,0.5-6.9
			c1.4-8.9,3.9-13.4,7.4-13.4C95.6,124.2,97.9,125.7,99.3,128.5z"/>
		<path class="st1" d="M85.8,144.7c0,0.1,0,0.2-0.1,0.3c0,1.6-0.2,2.9-0.5,4.1c0,1.7-0.5,3.9-1.4,6.4c-1.8-6.2-4.9-11.6-9.3-16.2
			v1.7l-7.6-5.5c0-3.7,0.3-5.9,0.9-6.7c1-0.2,1.8-0.2,2.4-0.2c2.9,0,6.5,3.6,11,10.7l3.1,6.9c0.2-0.4,0.4-0.9,0.5-1.7L85.8,144.7z"
			/>
		<path class="st2" d="M48,175.7c0.3-0.5,0.5,0.3,0.5,2.4c-0.3,2.6-0.6,4.7-0.7,6.4c-1.4,2.4-2.7,3.9-3.8,4.5h-0.7c-4,0-6-3.1-6-9.3
			c0-4.1,2-11.2,6-21.2l1.2-3.3l0.7-0.7c0.3-0.6,0.6-0.7,0.8-0.1c0.2,0.6,0.2,1.2,0,1.9c-0.2,0.7-1.1,3.2-2.6,7.4
			c-1.5,4.2-2.3,7.5-2.3,9.9c0,5.1,1.1,7.8,3.3,8.1c1.3-0.3,2.4-1.5,3.3-3.6L48,175.7z"/>
	</g>
</g>
</svg>
